<?xml version="1.0" standalone="no"?>
<!DOCTYPE svg PUBLIC "-//W3C//DTD SVG 20010904//EN"
 "http://www.w3.org/TR/2001/REC-SVG-20010904/DTD/svg10.dtd">
<svg version="1.0" xmlns="http://www.w3.org/2000/svg"
 width="600.000000pt" height="600.000000pt" viewBox="0 0 600.000000 600.000000"
 preserveAspectRatio="xMidYMid meet">
<metadata>
Created by potrace 1.14, written by Peter Selinger 2001-2017
</metadata>
<g transform="translate(0.000000,600.000000) scale(0.100000,-0.100000)"
fill="#000000" stroke="none">
<path d="M0 3654 c0 -2552 -4 -2374 54 -2374 21 0 26 5 26 26 0 14 -7 32 -15
40 -8 9 -15 20 -15 25 0 14 17 11 23 -5 4 -10 20 -13 56 -10 l51 3 0 -39 c0
-22 -4 -40 -10 -40 -16 0 -12 -27 5 -34 8 -3 15 -14 15 -25 0 -17 -8 -20 -53
-23 -45 -3 -52 -6 -55 -26 -2 -12 1 -22 7 -22 6 0 15 -9 21 -19 9 -19 7 -19
-49 -15 l-58 4 0 -125 c0 -106 2 -125 14 -121 8 4 17 6 19 6 2 0 2 19 -1 43
l-6 42 16 -29 c9 -15 17 -48 18 -72 0 -30 5 -44 14 -44 7 0 13 -3 13 -8 0 -4
19 -26 41 -50 26 -26 36 -42 26 -42 -8 0 -17 -7 -21 -15 -3 -8 -17 -15 -31
-15 -34 0 -32 -18 3 -22 21 -2 28 -9 30 -30 5 -43 -26 -77 -70 -78 -36 0 -37
1 -41 43 l-4 42 -1 -42 c-1 -24 -6 -43 -12 -43 -5 0 -10 -11 -10 -25 0 -22 4
-25 40 -25 29 0 40 -4 40 -15 0 -8 8 -15 18 -15 14 -1 13 -4 -7 -20 -29 -25
-38 -25 -46 0 -10 30 -32 24 -39 -11 -3 -17 -6 -125 -6 -239 l0 -207 40 -1
c38 -2 40 0 40 28 0 35 25 42 35 10 4 -14 15 -20 35 -20 16 0 32 -4 35 -10 4
-6 73 -10 174 -10 163 0 169 1 184 22 l16 23 0 -22 c1 -19 7 -23 35 -23 34 0
35 1 39 43 l4 42 1 -42 2 -43 395 0 395 0 0 119 c0 66 3 122 8 124 4 2 23 2
44 0 24 -3 38 -11 41 -24 3 -10 17 -21 33 -24 39 -8 56 -18 68 -39 9 -13 7
-20 -6 -30 -33 -24 -22 -46 21 -46 22 0 41 5 43 12 4 10 10 10 29 1 l24 -12
-27 0 c-26 -1 -28 -4 -28 -41 l0 -40 205 0 205 0 0 39 c0 36 -3 40 -27 44 -16
2 0 5 33 6 67 1 74 -4 74 -60 l0 -29 70 0 c68 0 70 1 70 25 0 23 2 24 20 15
11 -6 20 -17 20 -25 0 -12 20 -15 111 -15 81 0 108 3 103 12 -5 8 -2 9 12 3
10 -5 49 -11 85 -13 l66 -4 -2 124 c-3 182 -1 171 -27 157 l-22 -12 22 -17
c24 -20 29 -61 12 -104 -6 -17 -6 -35 0 -51 6 -15 6 -27 0 -30 -5 -3 -7 -12
-4 -20 9 -22 -18 -27 -57 -10 -43 19 -69 39 -69 53 0 14 39 25 71 20 15 -2 24
2 24 11 0 9 -16 14 -58 15 -56 1 -57 0 -57 -26 0 -32 -6 -34 -29 -13 -9 8 -26
23 -39 35 -19 17 -21 26 -16 63 4 23 12 45 17 49 6 3 9 34 8 68 -2 45 2 67 14
80 14 15 14 18 0 30 -21 17 -20 96 1 104 9 3 20 3 26 0 5 -3 46 -7 90 -8 55
-1 83 -5 86 -14 2 -7 8 -10 13 -6 5 3 29 2 53 -1 34 -5 46 -13 55 -32 10 -21
9 -29 -4 -43 -14 -15 -13 -18 10 -28 34 -16 35 -15 35 8 0 24 8 25 29 6 70
-63 72 -67 65 -89 -10 -30 -35 -47 -61 -40 -14 3 -23 1 -23 -6 0 -6 9 -11 21
-11 21 0 89 -62 89 -80 0 -6 10 -10 23 -10 57 0 67 -9 67 -62 0 -39 -3 -49
-14 -45 -9 3 -17 -3 -21 -16 -7 -20 -8 -20 -15 8 -4 17 -8 22 -9 13 -3 -42
-40 -27 -41 16 0 14 6 17 25 14 29 -6 61 14 51 31 -4 6 -16 9 -26 6 -10 -3
-21 -1 -25 5 -4 6 -14 8 -24 5 -9 -4 -42 -7 -73 -6 -64 2 -78 -10 -78 -73 0
-69 -7 -66 192 -65 l180 0 -4 50 c-5 50 -2 54 26 43 11 -4 16 -19 16 -50 l0
-44 113 0 c112 0 112 0 124 27 7 15 13 33 13 40 0 7 5 13 10 13 6 0 10 9 10
21 0 24 23 21 28 -4 2 -10 -3 -17 -12 -17 -9 0 -16 -8 -16 -19 0 -11 -5 -23
-10 -26 -5 -3 -10 -13 -10 -21 0 -11 19 -14 95 -14 l95 0 0 35 c0 30 -3 35
-24 35 -51 0 -56 7 -56 85 l0 72 32 10 c33 9 33 9 33 75 0 38 5 72 12 79 6 6
33 13 60 14 26 1 51 3 56 4 4 0 7 15 7 32 0 17 7 37 16 46 8 9 15 30 14 47 -3
58 0 74 18 80 9 3 23 9 30 12 7 3 12 -1 12 -10 0 -9 5 -16 10 -16 6 0 10 8 10
18 0 10 20 37 45 60 28 26 45 51 45 65 0 17 10 28 35 40 20 9 41 28 47 42 6
14 15 25 20 25 5 0 6 5 3 10 -4 6 -3 10 2 9 4 -1 25 1 46 6 38 7 39 8 35 50
-3 46 16 71 47 59 8 -4 31 -3 51 1 33 6 36 9 32 34 -3 24 2 31 35 49 l39 21
-6 -24 c-6 -22 -3 -25 18 -25 21 0 26 6 32 38 7 41 22 65 35 56 5 -3 9 4 9 15
0 19 7 21 73 23 l72 2 -75 6 c-50 4 -61 7 -32 8 l42 2 1 78 c0 42 2 84 5 92 2
8 8 33 13 55 5 22 15 54 24 70 8 17 18 49 22 72 5 33 11 43 26 43 16 0 19 7
19 40 0 22 4 40 9 40 5 0 13 10 17 23 7 21 7 21 15 2 6 -15 8 -11 8 18 1 20 6
37 11 37 6 0 10 18 10 40 0 36 3 40 25 40 25 0 25 1 25 80 0 73 2 80 20 80 17
0 20 7 20 40 0 33 3 40 20 40 16 0 20 -7 20 -35 0 -33 2 -35 35 -35 l35 0 0
70 0 70 -42 1 c-24 1 -33 4 -22 6 12 2 30 13 40 24 22 25 34 24 34 -2 0 -16 4
-19 20 -14 12 4 20 2 20 -5 0 -6 11 -21 24 -33 26 -25 43 -67 27 -67 -15 0
-14 -37 2 -44 10 -5 10 -7 0 -12 -7 -3 -13 -13 -13 -21 0 -12 3 -13 14 -4 22
18 30 -4 28 -76 -1 -36 2 -63 8 -63 5 0 10 -18 10 -39 0 -22 4 -41 10 -43 5
-1 11 -48 13 -103 2 -55 2 -90 0 -77 -7 37 -23 25 -23 -18 0 -38 2 -40 30 -40
18 0 33 6 36 15 8 20 21 19 27 -2 3 -10 5 3 4 29 0 36 5 53 21 71 12 13 22 29
22 35 0 7 9 12 20 12 17 0 20 7 20 40 l0 40 40 0 c32 0 40 -4 40 -19 0 -10 7
-24 15 -31 8 -7 15 -23 15 -37 0 -13 -7 -26 -15 -29 -8 -4 -15 -15 -15 -25 0
-15 7 -19 39 -19 22 0 42 6 45 13 3 6 2 -1 -1 -17 -5 -25 -3 -28 11 -23 13 5
21 0 29 -23 6 -16 17 -30 24 -30 10 0 13 -22 13 -80 0 -47 -4 -80 -10 -80 -5
0 -10 -18 -10 -40 0 -33 -3 -40 -20 -40 -17 0 -20 -7 -20 -40 0 -22 5 -40 10
-40 6 0 10 -18 10 -40 0 -27 -4 -40 -14 -40 -10 0 -15 -23 -18 -94 -3 -85 -6
-97 -30 -120 -18 -19 -24 -33 -20 -53 4 -23 2 -25 -17 -20 -15 4 -21 1 -21
-12 0 -21 -43 -46 -64 -38 -9 4 -16 1 -16 -6 0 -7 -9 -20 -20 -30 -12 -10 -18
-21 -16 -26 3 -5 -23 -6 -59 -3 -56 4 -65 2 -65 -12 0 -11 9 -16 27 -16 l26 0
-22 -24 c-17 -18 -19 -25 -9 -30 7 -3 -2 -3 -19 0 -26 4 -33 2 -33 -10 0 -18
-20 -57 -34 -68 -5 -3 -15 -4 -23 -1 -7 3 -13 -2 -13 -10 0 -27 -20 -29 -40
-5 l-19 23 -1 -27 c0 -17 5 -28 14 -28 22 0 26 -25 5 -38 -12 -8 -19 -8 -19
-2 0 5 -4 10 -10 10 -5 0 -10 -8 -10 -17 -1 -20 -59 -95 -60 -75 0 6 -7 12
-16 12 -8 0 -12 -5 -9 -11 4 -5 -6 -28 -21 -51 -16 -22 -30 -35 -32 -29 -6 17
-22 13 -22 -6 0 -10 -14 -33 -30 -52 -17 -18 -30 -29 -30 -22 0 6 -7 11 -15
11 -8 0 -15 -9 -15 -20 0 -21 -15 -27 -25 -10 -10 17 -25 11 -25 -10 0 -11 7
-20 15 -20 8 0 15 -7 15 -16 0 -9 -6 -14 -14 -11 -8 3 -23 -10 -37 -34 -13
-21 -29 -39 -36 -39 -6 0 -14 -10 -16 -22 l-4 -23 -2 23 c-1 19 -7 22 -41 22
-22 0 -40 -4 -40 -10 0 -5 14 -10 30 -10 38 0 38 -14 0 -30 -47 -20 -35 -30
34 -30 57 0 65 3 80 25 9 13 16 31 16 39 0 17 42 24 106 17 l49 -6 -38 -22
c-60 -36 -50 -53 31 -51 75 2 94 14 90 55 -3 25 0 28 25 25 27 -3 27 -2 21 38
-7 44 6 54 24 18 l11 -23 0 23 c1 17 7 22 26 22 14 0 25 5 25 10 0 12 -2 12
-35 0 -23 -9 -26 -8 -21 6 3 8 6 20 6 25 0 5 6 9 14 9 8 0 16 7 20 15 8 21 34
19 39 -3 2 -9 3 -6 2 7 -2 18 4 26 26 34 19 8 33 22 40 44 11 35 18 40 36 22
6 -6 21 -9 34 -7 21 3 25 10 29 53 3 31 8 45 13 38 9 -15 47 -17 47 -4 0 6 -5
13 -10 16 -12 7 10 30 73 78 20 15 37 34 37 41 0 18 29 25 84 19 31 -4 46 -2
46 6 0 6 -11 11 -23 11 -13 0 -26 3 -30 6 -10 11 5 34 23 34 22 0 90 64 90 84
0 9 6 16 14 16 7 0 19 7 26 15 16 19 40 19 40 0 0 -8 5 -15 11 -15 7 0 9 8 5
20 -3 11 -9 29 -12 40 -5 14 -2 20 10 20 9 0 16 4 16 9 0 5 13 14 29 19 21 8
35 24 50 57 12 26 21 54 21 61 0 8 4 14 9 14 5 0 11 14 15 31 7 35 26 30 26
-7 0 -13 5 -24 10 -24 10 0 11 13 15 148 1 40 7 78 13 84 7 7 12 8 12 3 0 -5
7 0 16 11 12 15 14 15 11 2 -4 -10 0 -15 9 -14 28 4 35 24 32 92 -3 61 -1 70
17 79 11 6 28 26 37 45 15 32 17 148 17 1455 l1 1419 -24 21 c-14 12 -37 30
-52 41 -14 10 -41 32 -58 47 -17 15 -65 51 -106 79 -41 29 -76 56 -78 60 -2 4
-7 8 -12 8 -4 0 -37 18 -71 40 -86 54 -200 107 -246 116 -21 4 -51 16 -66 26
-49 35 -47 15 6 -43 9 -10 17 -21 17 -24 0 -3 14 -20 30 -38 65 -70 100 -112
100 -123 0 -5 8 -19 18 -30 10 -10 28 -40 40 -65 12 -25 30 -54 41 -65 10 -11
24 -37 32 -57 7 -20 17 -37 21 -37 4 0 8 -4 8 -9 0 -5 20 -44 44 -87 24 -44
48 -92 52 -109 4 -16 10 -32 13 -35 12 -10 50 -96 56 -127 4 -18 10 -33 14
-33 4 0 13 -17 20 -37 7 -21 19 -51 26 -68 19 -45 41 -114 55 -170 7 -27 19
-69 26 -93 32 -99 15 -92 -59 26 -30 48 -68 103 -86 122 -17 19 -31 40 -31 47
0 6 -10 20 -23 30 -12 10 -32 32 -44 48 -12 17 -81 89 -154 160 -72 72 -151
149 -174 173 -46 46 -76 53 -97 23 -8 -11 -28 -21 -47 -23 -20 -2 -39 -11 -45
-21 -9 -15 -6 -23 22 -46 17 -15 32 -32 32 -39 0 -15 -54 -52 -77 -52 -23 0
-43 -19 -43 -41 0 -16 93 -117 178 -192 24 -21 41 -42 37 -45 -4 -4 -36 -9
-73 -12 -95 -7 -94 -11 23 -119 25 -23 26 -26 9 -38 -10 -7 -26 -13 -36 -13
-23 0 -25 -42 -3 -60 8 -7 15 -18 15 -25 0 -8 6 -15 13 -18 21 -7 -12 -37 -43
-37 -15 0 -35 -9 -45 -20 -10 -11 -13 -20 -7 -20 17 0 34 -38 27 -60 -4 -11
-14 -20 -23 -20 -13 0 -14 -2 -3 -12 11 -10 14 -10 18 0 5 13 33 17 33 4 0 -4
18 -19 39 -32 22 -14 44 -33 51 -43 6 -11 11 -67 11 -140 1 -163 0 -177 -9
-177 -9 0 -32 95 -32 133 0 15 -4 27 -9 27 -5 0 -12 18 -16 40 -4 22 -11 40
-15 40 -5 0 -11 15 -15 33 -9 46 -26 87 -36 87 -16 0 -10 -24 20 -82 17 -31
32 -69 34 -85 2 -15 7 -35 10 -43 13 -32 46 -219 52 -302 4 -49 11 -88 16 -88
5 0 9 -12 9 -26 0 -30 45 -170 65 -201 12 -18 12 -23 0 -33 -12 -10 -15 -9
-15 4 0 9 -5 16 -10 16 -13 0 -150 133 -150 145 0 10 -47 82 -67 103 -7 7 -13
19 -13 26 0 7 -8 21 -17 32 -10 10 -29 39 -42 64 -26 48 -62 102 -73 110 -3 3
-9 42 -13 88 -4 45 -9 81 -12 79 -2 -2 -4 -36 -4 -76 -1 -39 -4 -71 -7 -71 -4
0 -22 9 -40 20 -20 12 -42 18 -53 15 -17 -6 -18 -13 -12 -80 3 -40 3 -80 0
-88 -8 -21 -45 -10 -52 14 -4 10 -13 19 -21 19 -8 0 -14 5 -14 10 0 6 -9 10
-20 10 -17 0 -19 -8 -22 -67 l-3 -68 -48 2 c-42 3 -49 0 -59 -22 -12 -27 -48
-35 -48 -10 0 7 -6 18 -13 22 -6 4 -18 20 -26 35 -8 15 -26 31 -42 37 -15 5
-32 19 -39 30 -6 12 -17 21 -25 21 -7 0 -15 5 -17 11 -3 9 -15 9 -43 3 l-39
-9 -2 -60 c-2 -73 -13 -133 -25 -141 -5 -3 -9 -13 -9 -22 0 -9 -7 -30 -15 -46
-8 -15 -15 -33 -15 -38 0 -6 -7 -26 -16 -44 -14 -29 -15 -40 -4 -62 6 -15 21
-87 31 -160 10 -73 28 -167 40 -210 27 -101 22 -134 -43 -282 -8 -19 -24 -55
-34 -79 -10 -24 -23 -49 -29 -55 -10 -10 -82 -124 -111 -177 -6 -11 -22 -31
-34 -44 -23 -25 -23 -25 -2 -25 11 0 23 8 27 18 3 11 23 25 45 32 22 7 40 19
40 25 0 16 32 25 86 25 46 0 94 34 75 53 -6 6 -11 28 -11 49 0 37 1 38 35 38
34 0 35 -1 35 -40 0 -22 5 -40 10 -40 6 0 10 -4 10 -10 0 -5 -15 -10 -32 -11
l-33 0 33 -16 c17 -9 32 -22 32 -29 0 -7 6 -14 13 -17 10 -4 10 -7 0 -18 -17
-17 -17 -56 0 -62 10 -4 10 -7 0 -18 -14 -14 -18 -59 -6 -59 3 0 15 7 25 17
15 13 18 14 18 2 0 -19 -52 -68 -103 -99 -36 -21 -39 -21 -51 -5 -10 14 -17
15 -31 8 -17 -10 -17 -11 4 -22 22 -12 22 -12 -11 -43 -53 -50 -104 -78 -116
-66 -8 8 -16 2 -29 -20 -10 -18 -21 -32 -25 -32 -5 0 -8 -5 -8 -12 0 -12 -59
-68 -72 -68 -4 0 -8 28 -8 62 0 34 -3 58 -7 55 -4 -4 -6 -31 -4 -60 2 -39 -2
-57 -13 -66 -9 -8 -16 -21 -16 -31 0 -17 -23 -45 -68 -84 -22 -19 -23 -19 -38
0 -15 18 -15 18 -11 -4 3 -12 -1 -29 -9 -36 -8 -8 -14 -24 -14 -35 0 -30 -91
-132 -98 -110 -4 11 -42 12 -42 2 0 -5 7 -17 15 -27 13 -17 12 -23 -3 -50 -9
-17 -25 -37 -36 -45 -10 -7 -28 -34 -40 -60 -18 -39 -25 -46 -46 -43 -18 2
-21 0 -11 -7 11 -7 9 -14 -12 -34 -40 -41 -82 -24 -180 73 -7 6 -25 24 -41 40
-17 17 -44 30 -70 34 -22 4 -62 13 -88 22 l-47 15 34 30 c29 26 42 30 82 29
66 -2 67 -2 53 15 -7 8 -26 15 -42 15 -26 0 -29 2 -18 15 7 8 18 15 25 15 7 0
30 20 50 45 21 24 46 47 56 50 11 4 19 12 19 19 0 6 14 20 30 29 17 10 30 23
30 28 0 21 58 59 90 59 11 0 20 6 20 13 0 6 18 32 41 56 37 41 57 57 99 78 8
4 34 26 57 50 24 24 49 43 55 43 18 0 117 80 123 100 3 11 14 21 23 24 9 3 30
17 46 31 16 14 38 25 48 25 11 0 18 5 16 13 -9 24 -35 18 -74 -17 -21 -20 -45
-36 -51 -36 -7 0 -13 -7 -13 -15 0 -8 -3 -15 -8 -15 -7 0 -74 -52 -133 -105
-15 -13 -37 -29 -50 -36 -13 -6 -30 -19 -38 -26 -7 -8 -26 -22 -40 -31 -14 -9
-30 -20 -36 -25 -55 -43 -160 -117 -167 -117 -4 0 -8 -7 -8 -15 0 -8 -4 -15
-9 -15 -4 0 -24 -15 -44 -32 -60 -56 -115 -98 -126 -98 -6 0 -17 -14 -26 -30
-9 -17 -19 -30 -23 -30 -4 0 -25 -16 -46 -35 -21 -19 -43 -32 -47 -29 -5 3 -9
41 -9 86 0 75 -22 182 -41 203 -5 5 -9 17 -9 27 0 10 -4 18 -8 18 -11 0 -34
108 -33 159 0 24 5 49 11 55 7 7 10 -2 10 -29 0 -42 19 -105 32 -105 29 0 9
142 -32 228 -11 23 -20 46 -20 51 0 16 46 24 68 12 28 -15 125 -14 159 1 15 7
38 22 49 34 12 11 35 26 53 33 17 8 31 19 31 25 0 6 13 17 30 24 16 8 30 20
30 29 0 11 -7 9 -29 -9 -16 -12 -44 -32 -62 -43 -18 -11 -45 -28 -59 -37 -81
-54 -117 -58 -226 -23 -43 14 -88 29 -99 34 -48 21 -176 55 -325 85 -163 33
-183 36 -211 36 -34 0 -85 18 -199 73 -115 55 -214 121 -280 188 -147 150
-190 199 -190 218 0 12 -4 21 -8 21 -5 0 -15 12 -23 27 -8 16 -22 35 -31 44
-10 9 -18 21 -18 28 0 6 -4 11 -10 11 -14 0 -12 -28 2 -32 7 -3 11 -18 10 -38
-2 -28 0 -31 12 -21 12 10 16 8 21 -10 4 -12 15 -31 25 -41 9 -10 26 -34 36
-53 17 -33 18 -36 1 -52 -16 -16 -17 -16 -17 2 0 16 -2 17 -10 5 -11 -18 -18
-11 -23 20 -3 21 -12 26 -63 37 -64 13 -92 4 -114 -37 -15 -28 -38 -25 -51 7
-27 66 -66 137 -88 159 -24 25 -51 32 -51 14 0 -5 -9 -10 -19 -10 -11 0 -23
-4 -26 -10 -3 -5 -13 -10 -22 -10 -12 0 -14 7 -9 35 5 24 3 35 -5 35 -6 0 -9
8 -6 20 4 15 -3 22 -30 31 -19 6 -50 8 -69 5 -49 -10 -58 0 -33 35 24 35 13
59 -28 59 -13 0 -34 5 -46 12 -12 6 -41 10 -64 9 -28 -2 -43 2 -43 9 0 7 -8 2
-18 -10 -11 -13 -24 -20 -30 -16 -16 10 -15 25 3 60 8 15 15 53 15 83 0 44 -4
58 -25 79 -14 14 -25 31 -25 39 0 8 -7 15 -15 15 -11 0 -15 11 -15 39 0 21 -6
44 -13 50 -8 6 -45 12 -83 14 -47 2 -69 7 -68 15 1 7 2 19 3 27 0 8 8 15 16
15 8 0 15 5 15 10 0 5 9 19 20 30 27 27 25 36 -14 73 -19 18 -38 41 -44 52 -6
13 -32 28 -66 38 -31 10 -56 22 -56 28 0 5 4 9 10 9 5 0 19 8 30 17 21 18 28
63 10 63 -6 0 -19 9 -30 20 -20 20 -20 20 0 40 27 27 25 45 -6 67 -32 23 -22
58 16 58 24 0 25 2 22 62 -3 43 1 72 12 94 9 18 16 38 16 46 0 7 6 13 14 13 8
0 16 10 18 22 2 12 8 23 14 25 7 2 16 -27 24 -79 7 -46 16 -87 20 -93 4 -5 10
-23 13 -40 4 -16 9 -45 13 -63 8 -41 24 -52 24 -17 0 30 -31 157 -41 165 -10
9 -26 174 -18 195 8 22 6 26 35 -65 9 -30 23 -68 31 -85 13 -26 14 -27 9 -5
-2 14 -19 77 -36 140 -83 299 -92 363 -92 663 0 136 5 269 11 295 16 71 33
163 38 202 2 19 8 44 13 55 5 11 16 47 25 80 9 33 23 75 31 93 8 18 14 41 14
52 0 10 4 22 10 25 9 6 55 97 82 163 7 17 16 32 19 32 3 0 14 18 25 40 10 22
24 40 29 40 10 0 25 20 50 65 11 20 33 47 95 114 34 37 112 103 200 171 25 19
47 38 48 42 2 4 15 8 28 8 13 0 24 4 24 9 0 15 33 22 41 9 4 -7 5 -15 1 -18
-14 -10 -39 -55 -55 -100 -9 -25 -30 -83 -47 -130 -18 -47 -36 -107 -40 -135
-5 -27 -18 -75 -30 -105 -63 -159 -90 -312 -90 -509 0 -140 -3 -163 -25 -226
-14 -38 -25 -80 -25 -93 0 -13 -5 -32 -10 -43 -6 -10 -7 -19 -2 -19 9 0 32 63
52 143 7 26 17 47 21 47 5 0 9 -3 10 -7 0 -5 2 -28 5 -53 4 -48 10 -73 43
-185 12 -39 21 -78 21 -88 0 -9 4 -17 9 -17 18 0 64 -144 72 -224 17 -171 50
-334 77 -381 7 -11 17 -33 24 -50 11 -28 12 -29 16 -7 2 13 -3 33 -11 46 -9
12 -18 43 -22 68 l-7 45 43 20 c47 22 79 14 79 -19 0 -10 4 -18 9 -18 5 0 13
-9 16 -20 3 -11 13 -20 21 -20 8 0 14 -3 14 -7 0 -5 25 -34 56 -66 64 -66 62
-83 -11 -90 -26 -3 -40 -9 -40 -18 0 -11 21 -14 100 -14 96 0 165 -15 165 -36
0 -5 8 -9 18 -8 10 0 12 3 5 6 -7 2 -13 14 -13 26 0 12 -15 36 -32 52 -18 17
-44 45 -58 64 -14 18 -31 39 -37 46 -7 8 -13 20 -13 28 0 9 -3 17 -8 19 -16 7
-72 127 -72 155 0 17 -9 38 -20 48 -11 10 -20 31 -20 46 0 16 -11 58 -24 93
-29 76 -61 285 -46 300 6 6 13 0 19 -16 5 -14 14 -27 18 -29 5 -2 21 -24 35
-49 30 -50 61 -92 98 -129 14 -14 36 -41 48 -59 23 -32 62 -60 62 -45 0 5 -25
35 -56 68 -80 86 -102 114 -132 165 -14 25 -30 47 -34 48 -4 2 -8 12 -8 23 0
10 -4 19 -10 19 -5 0 -10 6 -10 13 0 22 -24 67 -37 67 -6 0 -9 8 -6 19 2 10 0
36 -6 57 -17 63 -3 67 74 19 37 -23 89 -49 160 -80 43 -19 142 -51 203 -66 34
-8 57 -21 67 -36 12 -18 20 -21 33 -14 15 8 95 12 310 15 55 1 75 -3 82 -14
14 -22 12 -30 -8 -30 -10 0 -27 -7 -38 -15 -10 -8 -26 -15 -34 -15 -8 0 -26
-10 -40 -21 l-25 -21 54 7 c30 3 67 13 82 21 35 18 69 18 69 1 0 -7 9 -22 19
-34 25 -27 55 -87 71 -144 15 -50 36 -86 46 -77 13 14 23 89 25 184 1 112 7
131 31 111 27 -21 149 -269 142 -289 -3 -11 0 -20 9 -24 9 -3 21 -28 27 -55
14 -57 11 -60 -65 -100 -51 -27 -48 -24 -36 -46 6 -13 7 -52 1 -118 -6 -54 -8
-100 -6 -103 9 -9 57 81 71 133 24 94 33 104 110 131 47 16 85 23 115 20 25
-2 55 -4 67 -5 25 -1 46 -35 57 -90 11 -60 -39 -115 -97 -104 -52 10 -57 1
-41 -64 16 -61 74 -191 96 -214 39 -41 88 -115 86 -128 -2 -8 -14 -19 -28 -23
-14 -4 11 -5 55 -2 44 4 82 10 85 14 5 7 61 18 125 24 17 1 56 10 89 20 56 16
59 16 78 -1 19 -17 19 -17 13 10 -6 21 -1 35 20 62 23 31 30 35 58 30 18 -4
43 -2 57 4 23 9 23 10 -12 10 -44 1 -51 22 -13 39 13 6 27 22 31 36 5 22 9 24
31 15 37 -14 53 -11 53 11 0 15 -7 20 -28 20 -38 0 -46 10 -23 27 11 7 22 31
26 53 6 35 10 40 34 40 15 0 35 6 45 13 16 12 16 14 -9 25 -15 7 -30 11 -32 8
-3 -3 -14 4 -26 15 -11 10 -26 19 -33 19 -7 0 -26 12 -42 27 -75 69 -91 83
-98 83 -4 0 -22 11 -40 25 -18 14 -38 25 -44 25 -19 0 -57 34 -53 47 7 19 -10
23 -131 29 -124 7 -281 -7 -376 -33 -30 -9 -70 -18 -87 -20 -18 -3 -34 -10
-34 -17 -1 -6 -5 6 -9 28 -4 21 -4 55 1 75 12 56 15 206 5 299 -8 80 -8 83 13
89 24 6 19 23 -8 23 -18 0 -41 37 -41 65 0 8 -9 43 -19 77 -10 35 -24 86 -30
113 -6 28 -25 78 -42 113 -17 35 -28 66 -25 69 3 3 -4 17 -14 31 -11 13 -20
30 -20 38 0 7 -3 14 -8 16 -15 6 -71 85 -65 92 14 13 40 4 81 -29 24 -19 53
-37 64 -41 12 -3 38 -24 58 -45 39 -41 60 -49 60 -24 0 8 -7 15 -15 15 -9 0
-18 7 -21 15 -4 8 -12 15 -20 15 -7 0 -17 6 -21 13 -9 14 -89 67 -101 67 -5 0
-17 8 -26 19 -9 10 -29 21 -44 24 -28 6 -110 66 -178 130 -21 20 -42 37 -45
37 -3 0 -19 12 -35 26 -16 14 -42 32 -59 41 -16 9 -34 22 -38 29 -4 8 -15 14
-22 14 -8 0 -15 4 -15 8 0 4 -12 15 -27 24 -16 9 -41 27 -57 41 -15 13 -48 34
-72 46 -24 13 -44 27 -44 32 0 5 -5 9 -11 9 -12 0 -87 51 -134 91 -72 62 -210
185 -236 210 -29 28 -38 59 -19 59 6 0 10 -4 10 -10 0 -5 7 -10 15 -10 8 0 15
-4 15 -10 0 -5 9 -10 19 -10 11 0 23 -4 26 -10 3 -5 16 -10 29 -10 12 0 26 -4
32 -8 9 -9 124 -45 174 -56 14 -2 79 -19 145 -36 66 -17 149 -37 185 -45 36
-8 108 -26 160 -40 262 -69 369 -108 473 -167 26 -16 57 -28 67 -28 11 0 20
-4 20 -10 0 -5 7 -10 15 -10 8 0 15 -4 15 -9 0 -5 13 -14 30 -21 17 -7 30 -16
30 -21 0 -5 5 -9 11 -9 12 0 87 -58 121 -94 22 -23 68 -113 68 -132 0 -7 3
-14 8 -16 15 -7 92 -190 92 -220 0 -9 4 -19 8 -22 8 -5 29 -118 52 -273 9 -64
7 -179 -5 -255 -3 -20 0 -28 10 -28 9 0 14 11 15 28 4 183 9 237 21 234 8 -2
16 -8 17 -13 2 -5 9 -9 15 -9 21 0 297 -139 297 -150 0 -5 11 -10 24 -10 13 0
26 -7 30 -15 3 -8 16 -15 28 -15 26 -1 92 -50 68 -50 -22 -1 19 -30 41 -30 23
0 90 -39 107 -62 7 -10 19 -18 26 -18 6 0 48 -36 93 -80 44 -44 85 -80 89 -80
15 0 120 -113 137 -147 9 -17 26 -34 37 -38 11 -3 23 -17 26 -31 3 -13 10 -24
15 -24 5 0 9 -7 9 -17 0 -9 11 -31 25 -49 14 -18 25 -37 25 -43 0 -5 6 -14 13
-18 8 -4 35 -52 62 -105 26 -54 51 -98 55 -98 13 0 22 34 11 38 -6 2 -11 17
-11 33 0 26 -7 62 -31 159 -4 19 -13 60 -20 90 -15 67 -47 179 -60 202 -5 10
-9 31 -9 48 0 16 -4 30 -9 30 -4 0 -11 15 -14 33 -3 17 -26 85 -51 149 -25 65
-46 122 -46 128 0 5 -4 10 -10 10 -5 0 -10 7 -10 15 0 12 5 12 35 -3 19 -9 35
-23 35 -30 0 -7 5 -10 10 -7 6 4 28 -7 49 -24 21 -17 46 -31 54 -31 9 0 19 -5
22 -11 4 -5 33 -23 65 -38 51 -25 57 -26 52 -9 -2 10 -17 29 -33 42 -16 14
-29 29 -29 35 0 6 -4 11 -10 11 -5 0 -10 7 -10 15 0 8 -4 15 -9 15 -5 0 -14
14 -21 30 -7 17 -17 30 -22 30 -5 0 -14 14 -19 30 -6 17 -15 30 -20 30 -5 0
-9 5 -9 10 0 9 -108 175 -143 220 -7 8 -18 28 -26 43 -8 15 -18 27 -23 27 -4
0 -8 5 -8 10 0 6 -16 36 -35 66 -19 30 -35 61 -35 69 0 8 -6 15 -13 15 -6 0
-18 19 -25 42 -7 23 -21 60 -31 83 -10 22 -24 56 -31 75 -8 19 -23 51 -35 70
-37 61 -38 71 -7 68 15 -2 30 -7 33 -12 4 -5 13 -6 20 -4 13 4 -102 78 -122
78 -6 0 -31 9 -57 21 -26 11 -67 30 -92 41 -75 33 -83 36 -133 52 -26 9 -57
16 -69 16 -35 0 -3 -27 41 -34 49 -7 91 -40 91 -71 0 -13 6 -26 12 -29 7 -3 0
-2 -16 1 -32 7 -50 15 -111 54 -22 14 -59 31 -82 39 -31 9 -43 19 -43 32 0 15
3 17 19 8 24 -12 61 -13 61 -1 0 9 -97 31 -137 31 -13 0 -23 5 -23 10 0 6 -6
10 -12 10 -7 0 -33 19 -58 41 -54 49 -150 123 -178 138 -11 6 -26 17 -34 23
-40 39 -365 178 -413 178 -6 0 -28 9 -50 20 -22 11 -51 20 -65 20 -35 0 -52
18 -40 41 11 19 160 94 268 135 77 29 119 30 192 4 30 -11 61 -19 68 -20 7 0
32 -9 54 -20 23 -11 48 -20 55 -20 25 0 294 -136 301 -152 2 -5 10 -8 18 -8 7
0 55 -27 106 -59 149 -95 154 -98 184 -104 16 -3 23 -4 17 -1 -7 3 -13 18 -13
33 0 24 -5 28 -57 40 -130 30 -119 51 25 51 59 0 141 -5 182 -11 41 -5 98 -12
125 -14 142 -13 385 -76 440 -114 22 -16 72 -45 110 -66 39 -21 94 -55 124
-74 29 -20 65 -42 80 -50 14 -8 28 -18 29 -23 2 -4 9 -8 15 -8 7 0 25 -11 41
-25 16 -14 32 -25 35 -25 3 0 17 -10 31 -23 14 -12 41 -33 60 -47 19 -13 37
-27 40 -30 3 -3 21 -17 40 -30 19 -14 44 -34 56 -45 11 -11 40 -36 64 -55 102
-82 253 -228 299 -290 14 -19 43 -50 64 -69 20 -19 37 -40 37 -48 0 -7 4 -13
9 -13 5 0 19 -16 32 -35 13 -19 27 -35 32 -35 4 0 7 335 7 745 l0 745 -375 0
-375 0 0 -34 c0 -19 -5 -47 -10 -61 -8 -22 -15 -26 -33 -21 -12 3 -42 9 -67
12 -25 3 -64 10 -87 16 -41 10 -43 12 -43 49 l0 39 -1985 0 -1985 0 0 -33 c0
-33 -8 -43 -70 -87 -38 -27 -55 -40 -102 -82 -18 -16 -35 -28 -40 -28 -4 0 -8
52 -8 115 l0 115 -211 0 -212 0 5 -397 c4 -344 3 -404 -11 -440 -8 -24 -19
-43 -23 -43 -4 0 -8 -7 -8 -15 0 -24 -37 -36 -108 -33 l-67 3 -6 430 c-3 237
-7 445 -8 463 l-1 32 -85 0 -85 0 0 -2346z m1608 1958 c4 -107 36 -245 91
-392 57 -153 65 -174 72 -180 7 -6 40 -95 82 -220 17 -52 35 -98 39 -101 4 -3
13 -32 19 -65 6 -32 15 -67 20 -76 7 -15 5 -18 -13 -18 -25 0 -99 65 -138 120
-13 19 -30 41 -37 48 -7 7 -13 17 -13 20 0 4 -11 19 -24 33 -23 25 -86 147
-86 168 0 6 -3 11 -8 11 -7 0 -17 35 -48 165 -26 107 -34 178 -34 301 0 135
17 214 53 239 12 8 22 15 22 15 0 0 1 -30 3 -68z m3640 5 c2 -17 -2 -29 -11
-33 -18 -6 -127 43 -127 57 0 6 28 9 68 7 65 -3 67 -4 70 -31z m-4925 -598 c6
-22 -2 -59 -13 -59 -4 0 -10 -10 -13 -22 -3 -13 -17 -54 -31 -93 -14 -38 -25
-79 -26 -89 0 -11 -5 -36 -11 -55 -7 -20 -14 -43 -16 -51 -4 -12 -7 -11 -13 5
-9 25 -23 346 -15 366 4 10 24 15 69 16 56 1 65 -1 69 -18z m3852 -339 c-10
-16 -35 8 -28 25 4 12 7 12 20 0 8 -8 11 -20 8 -25z m-2203 -29 c5 -14 120
-132 163 -166 20 -16 51 -42 68 -57 28 -25 29 -28 11 -28 -11 0 -24 4 -29 8
-6 5 -30 14 -54 21 -24 7 -53 22 -65 33 -11 11 -35 31 -53 45 -32 25 -53 68
-53 109 0 13 -4 24 -10 24 -5 0 -10 5 -10 10 0 13 27 13 32 1z m698 -486 c0
-3 -14 -5 -31 -5 -27 0 -30 2 -19 15 9 11 17 12 31 4 10 -5 19 -12 19 -14z
m-1241 -397 c8 -18 25 -46 38 -61 30 -37 29 -55 -2 -69 -14 -6 -25 -16 -25
-22 0 -6 -7 -4 -15 5 -15 14 -38 155 -29 171 10 15 19 8 33 -24z m1925 -254
c31 -30 12 -68 -34 -70 -25 -1 -33 3 -41 23 -5 13 -9 26 -9 28 0 11 34 35 50
35 10 0 26 -7 34 -16z m-2740 -178 c-15 -28 -31 -53 -34 -56 -4 -3 -11 -20
-15 -39 -4 -19 -20 -61 -36 -95 -16 -34 -29 -71 -29 -83 0 -13 -3 -23 -8 -23
-4 0 -13 -26 -19 -57 -7 -32 -21 -89 -32 -128 -30 -107 -34 -144 -38 -370 -5
-216 1 -278 38 -430 10 -44 19 -87 19 -95 0 -8 -21 8 -47 36 -69 75 -83 92
-109 143 -14 25 -29 53 -34 61 -5 8 -15 30 -22 48 -7 17 -15 32 -19 32 -8 0
-64 127 -82 190 -26 88 -57 226 -57 255 0 23 17 60 70 153 8 15 34 52 58 83
23 31 42 61 42 67 0 7 4 12 10 12 5 0 16 13 24 29 20 39 90 116 211 233 135
132 129 127 133 104 2 -10 -9 -42 -24 -70z m3143 -68 c-2 -13 -4 -5 -4 17 -1
22 1 32 4 23 2 -10 2 -28 0 -40z m-411 -7 c10 -17 28 -32 41 -36 13 -3 23 -10
23 -15 0 -6 7 -10 15 -10 8 0 15 -4 15 -9 0 -5 25 -15 55 -22 52 -11 57 -11
78 9 13 12 28 22 34 22 6 0 17 20 24 45 11 37 18 45 34 43 18 -3 20 -9 17 -58
-2 -30 -10 -62 -18 -71 -8 -8 -14 -21 -14 -27 0 -6 -26 -16 -57 -22 -32 -7
-63 -16 -68 -20 -6 -5 -34 -12 -62 -16 -49 -6 -54 -5 -83 24 -16 17 -30 33
-30 37 0 14 -45 65 -57 65 -7 0 -13 7 -13 15 0 8 4 15 9 15 5 0 11 14 15 30 7
38 20 38 42 1z m994 -545 c0 -3 -4 -8 -10 -11 -5 -3 -10 -1 -10 4 0 6 5 11 10
11 6 0 10 -2 10 -4z m821 -233 c5 -13 83 -106 122 -146 23 -25 28 -40 34 -103
4 -56 3 -74 -7 -74 -10 0 -10 -3 0 -15 23 -28 -5 -40 -105 -43 l-95 -4 0 29
c0 15 -1 98 -1 183 -1 85 -1 177 0 204 l1 49 24 -35 c13 -19 25 -40 27 -45z
m-801 -303 c9 -18 8 -20 -15 -20 -14 0 -25 -4 -25 -10 0 -5 -4 -10 -9 -10 -16
0 -21 30 -9 55 9 19 14 22 29 14 10 -5 23 -18 29 -29z m-4088 -20 c5 0 8 -6 8
-14 0 -16 78 -139 92 -144 4 -2 8 -10 8 -17 0 -7 4 -15 9 -17 5 -1 13 -67 17
-145 4 -79 11 -143 16 -143 5 0 8 -12 6 -27 -3 -28 -3 -28 -76 -27 -40 1 -78
7 -86 13 -13 11 -22 131 -32 436 -4 136 -4 139 13 113 10 -16 21 -28 25 -28z
m205 -82 c-3 -7 -5 -2 -5 12 0 14 2 19 5 13 2 -7 2 -19 0 -25z m3929 -86 c-9
-8 -26 10 -26 26 1 15 2 15 15 -2 8 -11 13 -21 11 -24z m952 -13 c2 -5 21 -9
43 -9 21 0 39 -4 39 -10 0 -5 18 -10 40 -10 22 0 40 -4 40 -10 0 -5 -18 -10
-40 -10 -22 0 -40 5 -40 11 0 7 -16 10 -44 8 -33 -3 -42 -1 -38 9 4 10 -6 13
-41 11 -30 -2 -53 3 -68 14 -23 16 -22 17 41 10 36 -3 67 -10 68 -14z m242 -9
c0 -5 -18 -10 -40 -10 -22 0 -40 5 -40 10 0 6 18 10 40 10 22 0 40 -4 40 -10z
m-1114 -44 c8 -8 14 -19 14 -24 0 -5 7 -15 15 -22 8 -7 15 -19 15 -26 0 -23
-28 -16 -36 9 l-8 22 -7 -25 c-6 -20 -7 -17 -8 18 -1 33 -5 42 -18 42 -15 0
-16 2 -3 10 19 12 19 13 36 -4z m1277 2 c4 -10 8 -10 15 1 6 9 17 11 28 6 18
-6 17 -8 -3 -16 -13 -4 -23 -13 -23 -19 0 -5 -4 -10 -10 -10 -5 0 -10 7 -10
15 0 12 -9 14 -37 11 -21 -2 -30 -1 -20 1 9 2 17 9 17 14 0 14 38 11 43 -3z
m87 -18 c0 -5 -2 -10 -4 -10 -3 0 -8 5 -11 10 -3 6 -1 10 4 10 6 0 11 -4 11
-10z m120 -71 c0 -11 -4 -17 -10 -14 -5 3 -10 15 -10 26 0 11 5 17 10 14 6 -3
10 -15 10 -26z m-93 -26 c-4 -17 -4 -17 -12 0 -4 9 -4 25 0 35 8 16 8 16 12 0
3 -10 3 -26 0 -35z m-39 16 c-2 -6 -8 -10 -13 -10 -5 0 -11 4 -13 10 -2 6 4
11 13 11 9 0 15 -5 13 -11z m-1343 -49 c10 -11 24 -20 32 -20 17 0 17 -11 -1
-35 -12 -16 -16 -17 -30 -6 -14 11 -16 11 -16 -3 0 -19 -14 -21 -28 -3 -7 8
-7 18 -2 27 6 9 5 17 -2 21 -9 6 -8 12 1 23 17 21 24 20 46 -4z m-115 -5 c0
-8 5 -15 10 -15 6 0 10 -7 10 -15 0 -11 -11 -15 -40 -15 -33 0 -40 3 -40 20 0
19 24 39 48 40 6 0 12 -7 12 -15z m1540 -5 c0 -5 -4 -10 -10 -10 -5 0 -10 5
-10 10 0 6 5 10 10 10 6 0 10 -4 10 -10z m-1312 -18 c6 -18 -15 -14 -22 4 -4
10 -1 14 6 12 6 -2 14 -10 16 -16z m-291 -64 c-3 -8 -6 -5 -6 6 -1 11 2 17 5
13 3 -3 4 -12 1 -19z m1586 -28 c-3 -11 -7 -20 -8 -20 -1 0 -5 9 -8 20 -3 12
0 20 8 20 8 0 11 -8 8 -20z m47 0 c0 -11 -7 -20 -15 -20 -8 0 -15 9 -15 20 0
11 7 20 15 20 8 0 15 -9 15 -20z m-1453 -18 c13 10 18 9 29 -7 18 -24 18 -35
0 -35 -8 0 -23 -11 -34 -24 -14 -19 -22 -22 -31 -13 -6 6 -11 19 -11 28 0 10
-4 21 -10 24 -17 11 -11 32 13 42 18 9 23 7 25 -9 3 -16 6 -17 19 -6z m-97 -7
c0 -11 -11 -15 -40 -15 -22 0 -40 -4 -40 -10 0 -5 18 -10 41 -10 49 0 49 -20
0 -34 -29 -8 -36 -7 -52 15 -37 48 -23 65 54 68 27 1 37 -3 37 -14z m1536
-135 c7 0 14 5 14 10 0 6 7 10 15 10 20 0 19 -5 -6 -40 -12 -16 -28 -26 -35
-23 -8 3 -14 0 -14 -6 0 -6 -7 -11 -16 -11 -14 0 -14 -3 -4 -16 19 -22 -7 -45
-37 -33 -32 12 -28 35 17 104 22 33 41 71 42 85 1 14 3 1 5 -27 3 -38 8 -53
19 -53z m-5596 70 c0 -5 -22 -10 -50 -10 -27 0 -50 5 -50 10 0 6 23 10 50 10
28 0 50 -4 50 -10z m3911 -87 c-4 -29 -10 -56 -14 -59 -3 -4 -22 -3 -41 0
l-34 7 24 26 c13 14 24 34 24 44 0 21 15 25 24 7 4 -9 5 -8 5 2 -2 32 1 44 10
35 5 -6 6 -34 2 -62z m-4066 37 c4 -6 -6 -10 -22 -10 -22 0 -25 2 -13 10 19
12 27 12 35 0z m134 -12 c-1 -16 -3 -18 -6 -6 -2 9 -14 19 -26 21 -18 4 -17 5
6 6 22 1 27 -3 26 -21z m4161 -33 c0 -33 -4 -45 -15 -45 -11 0 -15 12 -15 45
0 33 4 45 15 45 11 0 15 -12 15 -45z m30 30 c0 -8 -2 -15 -4 -15 -2 0 -6 7
-10 15 -3 8 -1 15 4 15 6 0 10 -7 10 -15z m-4385 -5 c3 -5 -1 -10 -10 -10 -9
0 -13 5 -10 10 3 6 8 10 10 10 2 0 7 -4 10 -10z m-70 -20 c-3 -5 -11 -10 -16
-10 -6 0 -7 5 -4 10 3 6 11 10 16 10 6 0 7 -4 4 -10z m4485 -24 c0 -8 -6 -16
-14 -19 -10 -4 -12 0 -9 14 6 22 23 26 23 5z m-4260 -8 c0 -4 -28 -8 -62 -8
-44 0 -59 3 -48 10 17 11 110 9 110 -2z m-250 -18 c0 -5 -4 -10 -10 -10 -5 0
-10 5 -10 10 0 6 5 10 10 10 6 0 10 -4 10 -10z m236 -67 c-11 -11 -19 6 -11
24 8 17 8 17 12 0 3 -10 2 -21 -1 -24z m5564 13 c0 -15 -18 -31 -26 -23 -7 7
7 37 17 37 5 0 9 -6 9 -14z m-1347 -26 c-3 -11 -7 -20 -9 -20 -2 0 -8 9 -14
20 -9 17 -8 20 9 20 14 0 18 -5 14 -20z m74 -12 c-3 -8 -6 -5 -6 6 -1 11 2 17
5 13 3 -3 4 -12 1 -19z m1293 -32 c-16 -33 -21 -36 -26 -21 -5 13 -1 23 14 33
12 8 22 22 23 31 0 9 3 11 5 6 2 -6 -5 -28 -16 -49z m-3033 14 c-3 -11 0 -23
6 -27 12 -7 -21 -20 -56 -22 -15 -1 -14 3 8 26 14 15 25 31 25 35 0 5 5 8 11
8 6 0 9 -9 6 -20z m83 -20 c0 -5 -4 -10 -10 -10 -5 0 -10 5 -10 10 0 6 5 10
10 10 6 0 10 -4 10 -10z m1560 -9 c7 -14 7 -22 -1 -27 -14 -8 -43 21 -35 35
11 17 24 13 36 -8z m1330 -35 c11 -39 10 -54 -6 -106 -17 -59 -18 -60 -29 -33
-21 50 -25 101 -9 114 12 10 14 4 15 -37 l1 -49 10 35 c7 24 6 40 -1 52 -13
21 -15 82 -2 74 4 -3 14 -26 21 -50z m-1236 28 c11 -28 6 -62 -8 -67 -16 -6
-26 12 -26 47 0 36 23 50 34 20z m1352 -25 c-13 -32 -14 -32 -15 -8 -1 14 4
30 11 37 19 19 20 7 4 -29z m-4104 4 c-5 -25 -6 -25 -19 -7 -12 16 -11 19 4
26 10 3 19 7 19 7 1 1 -1 -11 -4 -26z m1022 -52 c13 -14 16 -27 10 -43 -7 -23
-8 -22 -20 8 -11 26 -17 31 -39 27 -18 -4 -25 -1 -25 11 0 23 53 21 74 -3z
m145 0 c8 -5 -5 -7 -35 -4 -27 3 -51 7 -53 9 -9 8 75 3 88 -5z m-1449 -27 c0
-11 5 -14 16 -10 11 4 19 -3 27 -24 7 -19 18 -30 30 -30 16 0 18 -5 12 -42 -6
-40 -6 -42 9 -23 13 17 17 18 25 5 7 -10 7 -16 1 -18 -6 -2 -10 -10 -10 -18 0
-8 -7 -17 -15 -20 -8 -4 -15 -15 -15 -25 0 -15 7 -19 40 -19 29 0 40 4 40 15
0 19 11 19 36 0 32 -24 44 -18 44 24 0 30 4 40 18 43 56 12 83 -24 80 -111
l-1 -56 -7 45 c-6 39 -7 33 -8 -37 -2 -68 1 -83 13 -83 11 0 15 -11 15 -40 0
-22 -4 -40 -10 -40 -5 0 -10 -18 -10 -40 0 -33 3 -40 20 -40 17 0 20 7 22 43
l1 42 4 -42 c2 -24 8 -43 14 -43 5 0 9 -18 9 -40 l0 -40 -40 0 -40 0 0 -40 c0
-39 -1 -40 -35 -40 -33 0 -35 2 -35 35 0 35 0 35 -45 35 -45 0 -45 0 -45 -35
0 -24 -5 -35 -15 -35 -8 0 -15 4 -15 9 0 5 7 25 15 44 8 20 15 52 15 72 0 34
-1 35 -40 35 -31 0 -40 -4 -40 -17 -1 -17 -1 -17 -14 0 -7 9 -18 17 -24 17 -5
0 -8 9 -5 20 3 11 9 20 14 20 5 0 9 -9 9 -20 0 -11 5 -20 10 -20 15 0 11 42
-6 65 -13 17 -17 18 -36 6 -17 -11 -22 -11 -29 1 -5 7 -8 20 -8 28 0 10 2 11
6 3 2 -7 20 -13 39 -13 l34 0 0 70 0 70 -74 0 -74 0 -7 86 c-4 47 -4 121 0
165 l7 79 39 0 c29 0 39 -4 39 -16z m377 -66 c-2 -18 -4 -6 -4 27 0 33 2 48 4
33 2 -15 2 -42 0 -60z m643 2 c0 -47 4 -80 10 -80 6 0 10 -18 10 -40 0 -27 -4
-40 -14 -40 -14 0 -26 -29 -26 -68 0 -19 -4 -22 -21 -17 -20 7 -21 4 -14 -34
6 -39 6 -41 -20 -41 -21 0 -24 -3 -17 -16 10 -18 -8 -63 -33 -84 -12 -10 -15
-9 -15 4 0 9 -4 16 -10 16 -5 0 -10 -18 -10 -40 0 -22 5 -40 10 -40 6 0 10 -9
10 -20 0 -12 8 -32 17 -47 16 -24 16 -26 -1 -38 -23 -18 -17 -49 12 -53 18 -3
22 -10 22 -43 0 -32 -3 -39 -20 -39 -17 0 -20 -7 -20 -40 0 -22 -4 -40 -10
-40 -5 0 -10 19 -10 43 0 42 0 43 -35 43 -32 0 -35 -3 -35 -31 l-1 -30 -19 24
c-11 12 -18 27 -15 31 3 5 -5 7 -18 4 -21 -3 -24 -1 -19 21 2 14 1 68 -3 120
-7 92 -8 95 -31 95 -21 0 -24 4 -24 40 0 33 3 40 20 40 18 0 20 7 20 75 l0 75
-35 0 c-35 0 -35 0 -35 45 l0 45 40 0 40 0 0 51 c0 55 3 56 64 33 13 -5 16 1
16 35 0 37 2 41 25 41 14 0 25 4 25 9 0 5 16 15 35 21 19 6 37 20 40 31 5 15
16 19 51 19 l44 0 0 -80z m254 51 c3 -5 -1 -12 -10 -15 -25 -10 -34 -7 -34 9
0 16 35 21 44 6z m176 -9 c0 -14 -7 -17 -45 -14 -30 3 -45 9 -45 18 0 10 13
14 45 14 36 0 45 -3 45 -18z m2770 -42 c15 -9 -24 -105 -42 -102 -17 3 -38
-57 -38 -111 0 -32 -19 -55 -34 -40 -24 25 23 195 60 216 8 4 14 23 14 41 0
41 12 54 23 24 4 -12 12 -25 17 -28z m-5180 -10 c0 -5 -6 -10 -14 -10 -8 0
-18 5 -21 10 -3 6 3 10 14 10 12 0 21 -4 21 -10z m-515 -20 c-3 -5 -11 -10
-16 -10 -6 0 -7 5 -4 10 3 6 11 10 16 10 6 0 7 -4 4 -10z m2764 -25 c36 -31
32 -47 -15 -64 -42 -15 -53 -8 -35 21 9 14 10 23 2 31 -16 16 -14 37 3 37 8 0
28 -11 45 -25z m159 -27 l3 -48 -45 0 -46 0 0 51 0 50 43 -3 42 -3 3 -47z
m-2831 12 c-3 -16 -11 -36 -19 -43 -15 -15 -78 -31 -78 -19 1 20 13 52 22 52
5 0 18 9 30 20 32 30 50 26 45 -10z m2548 -15 c5 -22 4 -26 -3 -16 -9 12 -13
12 -26 2 -14 -11 -16 -11 -16 3 0 26 21 59 30 50 5 -5 12 -22 15 -39z m-768
-2 c-3 -10 -5 -4 -5 12 0 17 2 24 5 18 2 -7 2 -21 0 -30z m3903 22 c0 -8 -4
-15 -10 -15 -5 0 -7 7 -4 15 4 8 8 15 10 15 2 0 4 -7 4 -15z m-4420 -55 c0
-24 5 -40 12 -40 6 0 9 -2 6 -5 -3 -3 -13 -3 -22 1 -18 7 -24 84 -6 84 6 0 10
-18 10 -40z m560 -30 c0 -5 -4 -10 -10 -10 -5 0 -10 5 -10 10 0 6 5 10 10 10
6 0 10 -4 10 -10z m980 -20 c9 -6 17 -5 21 1 3 6 18 -17 33 -50 15 -33 31 -63
36 -66 6 -4 10 -15 10 -25 0 -11 9 -34 20 -52 16 -26 20 -51 20 -115 0 -46 -4
-83 -9 -83 -5 0 -6 -19 -4 -43 4 -34 1 -46 -17 -62 -22 -20 -22 -20 -63 4 -23
13 -64 35 -92 50 -49 26 -50 26 -20 29 17 2 35 8 40 14 7 6 -11 9 -55 8 -36
-1 -82 -2 -102 -1 -37 1 -38 2 -40 44 l-1 42 -4 -42 -4 -43 -63 0 -63 0 -9 43
-8 42 -4 -37 c-4 -43 -27 -56 -53 -32 -15 14 -16 20 -7 31 10 13 8 14 -12 11
-17 -2 -25 2 -25 12 0 8 6 14 14 12 7 -1 19 2 26 8 7 6 26 9 43 8 41 -3 64 18
57 52 -3 15 0 40 6 56 7 16 12 32 11 37 -1 4 3 7 8 7 6 0 10 -9 10 -20 0 -13
5 -18 15 -14 8 4 15 12 15 20 0 8 7 14 15 14 8 0 15 -6 15 -14 0 -7 7 -29 15
-47 l16 -34 -4 52 c-3 39 0 53 11 58 11 4 12 8 2 20 -10 13 -10 19 4 33 9 10
16 24 16 30 0 7 7 12 15 12 9 0 18 6 21 14 4 11 11 12 35 3 24 -9 34 -8 57 5
32 20 33 21 52 8z m-310 -51 c0 -14 7 -19 30 -19 21 0 30 -5 30 -16 0 -12 -9
-14 -37 -12 -24 2 -37 8 -35 16 1 6 -2 12 -8 12 -11 0 -14 33 -4 43 11 10 24
-3 24 -24z m2968 -7 c2 -22 -4 -41 -20 -62 -31 -39 -38 -37 -38 10 0 38 -13
54 -23 28 -2 -7 -8 -10 -12 -6 -4 4 0 14 8 23 13 13 20 13 36 3 11 -7 24 -8
28 -4 4 5 2 11 -4 13 -20 7 -16 35 5 31 11 -2 18 -14 20 -36z m-1438 18 c0 -5
-5 -10 -11 -10 -5 0 -7 5 -4 10 3 6 8 10 11 10 2 0 4 -4 4 -10z m-2190 -40 c0
-5 -4 -10 -10 -10 -5 0 -10 5 -10 10 0 6 5 10 10 10 6 0 10 -4 10 -10z m2108
-42 c-2 -17 -11 -24 -32 -26 l-30 -4 25 26 c30 32 41 33 37 4z m1387 -27 c7
-22 -29 -66 -45 -56 -16 10 -11 47 8 61 23 18 30 17 37 -5z m55 -5 c0 -8 5
-16 12 -18 17 -6 0 -28 -23 -28 -12 0 -19 -7 -19 -19 0 -26 -15 -34 -29 -17
-10 11 -6 21 18 49 17 19 28 37 24 41 -3 3 -1 6 5 6 7 0 12 -6 12 -14z m-4020
-6 c0 -5 -2 -10 -4 -10 -3 0 -8 5 -11 10 -3 6 -1 10 4 10 6 0 11 -4 11 -10z
m1060 -34 c0 -7 -7 -19 -15 -26 -16 -13 -20 -3 -9 24 8 20 24 21 24 2z m1440
-11 c0 -20 -5 -25 -27 -25 l-26 0 23 25 c13 14 25 25 27 25 2 0 3 -11 3 -25z
m1414 -17 c20 -19 -2 -85 -31 -91 -31 -6 -38 8 -19 38 21 32 20 45 -4 45 -13
0 -20 -7 -20 -20 0 -25 -17 -27 -22 -2 -6 32 68 56 96 30z m-3417 -90 c-3 -46
-3 -73 0 -60 6 28 32 40 44 21 15 -25 10 -39 -16 -39 -17 0 -25 -6 -26 -17 -1
-17 -2 -17 -6 0 -2 9 -9 17 -14 17 -5 0 -9 18 -9 40 0 22 5 40 10 40 6 0 10
18 10 40 0 22 3 40 6 40 3 0 4 -37 1 -82z m33 51 c0 -17 -4 -28 -10 -24 -5 3
-10 17 -10 31 0 13 5 24 10 24 6 0 10 -14 10 -31z m1890 -15 c0 -8 -5 -12 -10
-9 -6 4 -8 11 -5 16 9 14 15 11 15 -7z m1410 -56 c0 -19 -15 -24 -25 -8 -10
17 -25 11 -25 -10 0 -11 7 -20 15 -20 18 0 20 -20 3 -21 -7 0 -33 0 -58 0 -40
1 -43 0 -27 -12 22 -18 21 -23 -3 -47 -34 -34 -50 -26 -50 25 0 40 3 47 28 56
48 20 57 26 61 45 7 38 21 45 52 27 16 -10 29 -25 29 -35z m-4910 13 c0 -6 -4
-13 -10 -16 -5 -3 -10 1 -10 9 0 9 5 16 10 16 6 0 10 -4 10 -9z m260 -28 c2
-2 -6 -6 -18 -10 -12 -3 -22 -12 -22 -20 0 -11 -6 -8 -19 8 -14 17 -16 26 -8
31 11 7 56 1 67 -9z m116 -10 c-10 -10 -19 5 -10 18 6 11 8 11 12 0 2 -7 1
-15 -2 -18z m-253 10 c-13 -2 -33 -2 -45 0 -13 2 -3 4 22 4 25 0 35 -2 23 -4z
m1097 -53 c0 -5 -4 -10 -10 -10 -5 0 -10 5 -10 10 0 6 5 10 10 10 6 0 10 -4
10 -10z m2180 -10 c0 -11 -4 -20 -10 -20 -5 0 -10 9 -10 20 0 11 5 20 10 20 6
0 10 -9 10 -20z m-3580 -45 c0 -8 -9 -15 -20 -15 -11 0 -20 7 -20 15 0 8 9 15
20 15 11 0 20 -7 20 -15z m171 -22 c-6 -10 -11 -12 -11 -5 0 7 -15 12 -40 12
-53 0 -51 18 3 22 50 4 63 -4 48 -29z m115 22 c18 -13 17 -14 -18 -15 -29 0
-36 3 -32 15 8 19 25 19 50 0z m161 -11 c3 -8 1 -20 -6 -27 -8 -8 -15 -6 -26
9 -14 18 -14 17 -15 -13 0 -35 -8 -41 -27 -22 -9 9 -9 18 2 38 15 31 62 40 72
15z m3093 10 c0 -3 -7 -12 -15 -20 -12 -13 -15 -13 -15 -1 0 7 3 17 7 20 8 8
23 9 23 1z m-2020 -24 c0 -5 18 -10 40 -10 22 0 40 -5 40 -11 0 -6 -20 -9 -52
-7 -41 2 -54 7 -56 21 -2 10 3 17 12 17 9 0 16 -4 16 -10z m304 -2 c5 -10 7
-10 12 0 7 14 34 16 34 2 0 -5 -6 -10 -14 -10 -8 0 -16 -4 -18 -10 -1 -5 -14
0 -28 10 -19 15 -21 20 -8 20 9 0 19 -6 22 -12z m3101 2 c4 -6 1 -17 -5 -26
-10 -11 -16 -12 -26 -3 -11 9 -14 7 -14 -13 0 -31 -44 -58 -62 -40 -7 7 -28
12 -47 12 -32 1 -34 2 -16 12 30 18 45 35 45 52 0 13 12 16 59 16 33 0 63 -5
66 -10z m-4931 -19 c3 -5 -1 -12 -10 -15 -25 -10 -34 -7 -34 9 0 16 35 21 44
6z m1756 -19 c38 -32 29 -49 -14 -26 -16 7 -35 14 -42 14 -17 0 -18 27 -1 33
20 9 21 8 57 -21z m936 12 c19 -9 34 -20 34 -24 0 -13 -49 2 -66 21 -21 23
-13 24 32 3z m234 -47 c26 4 40 2 40 -6 0 -6 9 -11 21 -11 35 0 59 -19 59 -47
0 -22 2 -24 15 -13 13 10 19 10 35 -5 25 -23 17 -35 -25 -35 -35 0 -54 -14
-35 -25 6 -4 7 -12 3 -18 -4 -7 0 -6 10 2 10 7 27 11 41 7 19 -5 24 -14 29
-48 3 -24 2 -47 -3 -52 -14 -14 -40 1 -40 23 0 33 -22 36 -48 6 -40 -47 -122
-41 -122 9 0 8 -4 18 -10 21 -5 3 -10 2 -10 -4 0 -12 -49 1 -89 25 -26 15 -29
21 -24 53 7 42 31 92 53 106 22 14 55 22 58 14 2 -4 21 -5 42 -2z m-1803 -59
c-2 -13 -4 -3 -4 22 0 25 2 35 4 23 2 -13 2 -33 0 -45z m823 52 c0 -5 -4 -10
-10 -10 -5 0 -10 5 -10 10 0 6 5 10 10 10 6 0 10 -4 10 -10z m-1540 -20 c0 -6
11 -8 25 -4 18 4 25 2 25 -9 0 -18 -26 -41 -38 -33 -5 3 -7 -6 -4 -21 7 -35
-14 -22 -32 20 -9 21 -10 36 -3 45 11 15 27 16 27 2z m-547 -25 c15 -22 16
-25 2 -25 -8 0 -15 4 -15 9 0 5 -9 11 -21 14 -12 3 -18 10 -14 16 10 18 29 12
48 -14z m131 19 c20 -8 11 -24 -15 -24 -10 0 -19 7 -19 15 0 16 9 19 34 9z
m160 0 c20 -8 11 -24 -15 -24 -10 0 -19 7 -19 15 0 16 9 19 34 9z m4573 -16
c-3 -8 -6 -5 -6 6 -1 11 2 17 5 13 3 -3 4 -12 1 -19z m223 7 c0 -8 -7 -15 -15
-15 -8 0 -15 7 -15 15 0 8 7 15 15 15 8 0 15 -7 15 -15z m-4770 -44 c-8 -16
-20 -21 -50 -21 -22 0 -40 5 -40 10 0 6 18 10 39 10 27 0 41 5 45 16 4 9 9 14
12 11 3 -3 1 -15 -6 -26z m3241 -2 c-9 -22 -10 -22 -10 -3 -1 11 2 24 6 27 12
12 14 0 4 -24z m1289 0 c0 -5 -9 -9 -20 -9 -13 0 -20 -7 -20 -20 0 -11 -4 -20
-10 -20 -5 0 -10 -10 -10 -23 0 -39 -23 -77 -47 -77 -60 0 -75 37 -16 42 27 2
39 8 41 21 3 12 -3 17 -20 17 -22 1 -22 1 -3 12 11 6 33 26 49 44 27 29 56 36
56 13z m-2560 1 c0 -5 -2 -10 -4 -10 -3 0 -8 5 -11 10 -3 6 -1 10 4 10 6 0 11
-4 11 -10z m84 -27 c-4 -21 -13 -45 -20 -54 -8 -8 -15 -26 -15 -40 -1 -20 -2
-21 -6 -4 -3 11 -9 22 -14 25 -5 4 -11 22 -15 40 -4 25 -3 31 4 21 8 -11 11
-9 15 10 4 22 5 21 12 -8 10 -46 25 -41 25 7 0 22 5 40 10 40 7 0 8 -14 4 -37z
m2546 29 c0 -4 -13 -13 -30 -19 -33 -12 -33 -12 -24 11 6 16 54 23 54 8z
m-4775 -11 c7 -12 -31 -25 -45 -16 -6 4 -8 11 -5 16 8 12 42 12 50 0z m280 -1
c3 -5 -3 -10 -14 -10 -12 0 -21 5 -21 10 0 6 6 10 14 10 8 0 18 -4 21 -10z
m3097 -58 c-7 -2 -12 -11 -12 -19 0 -25 -22 -93 -30 -93 -18 0 -17 41 1 53 10
6 19 19 19 29 0 28 11 48 23 41 8 -5 7 -8 -1 -11z m1308 -2 c0 -5 -7 -10 -16
-10 -8 0 -12 5 -9 10 3 6 10 10 16 10 5 0 9 -4 9 -10z m-4863 -62 c-2 -13 -4
-3 -4 22 0 25 2 35 4 23 2 -13 2 -33 0 -45z m45 20 l1 -43 4 43 c3 29 9 42 19
42 12 0 14 -10 12 -42 -3 -39 -6 -43 -30 -46 -27 -3 -28 -2 -28 42 0 58 19 61
22 4z m394 -41 c9 -3 8 -4 -3 -3 -14 1 -18 11 -19 44 l-1 42 4 -39 c2 -23 10
-42 19 -44z m861 -39 c-2 -24 -4 -5 -4 42 0 47 2 66 4 43 2 -24 2 -62 0 -85z
m2043 82 c0 -29 -4 -40 -15 -40 -11 0 -15 11 -15 40 0 29 4 40 15 40 11 0 15
-11 15 -40z m-3133 -46 c-3 -3 -12 -4 -19 -1 -8 3 -5 6 6 6 11 1 17 -2 13 -5z
m3200 0 c-3 -3 -12 -4 -19 -1 -8 3 -5 6 6 6 11 1 17 -2 13 -5z m1353 -23 c0
-6 -4 -13 -10 -16 -5 -3 -10 1 -10 9 0 9 5 16 10 16 6 0 10 -4 10 -9z m-1224
-48 c-11 -11 -19 6 -11 24 8 17 8 17 12 0 3 -10 2 -21 -1 -24z m-1221 7 c3 -5
-3 -10 -15 -10 -12 0 -18 5 -15 10 3 6 10 10 15 10 5 0 12 -4 15 -10z m567 -1
c20 -11 20 -11 -2 -34 -18 -19 -27 -22 -41 -14 -24 12 -24 35 -1 48 22 13 20
13 44 0z m413 1 c4 -6 -5 -10 -20 -10 -15 0 -24 4 -20 10 3 6 12 10 20 10 8 0
17 -4 20 -10z m-3225 -4 c0 -2 -15 -6 -34 -8 -19 -2 -32 0 -30 4 5 8 64 12 64
4z m137 -2 c-3 -3 -12 -4 -19 -1 -8 3 -5 6 6 6 11 1 17 -2 13 -5z m248 -4 c3
-5 -3 -10 -14 -10 -12 0 -21 5 -21 10 0 6 6 10 14 10 8 0 18 -4 21 -10z m-115
-10 c0 -6 -7 -13 -15 -16 -20 -8 -48 3 -40 16 8 13 55 13 55 0z m2800 -16 c0
-22 -2 -25 -15 -14 -8 7 -15 19 -15 26 0 8 7 14 15 14 10 0 15 -10 15 -26z
m-2995 -14 c3 -5 1 -10 -4 -10 -6 0 -11 5 -11 10 0 6 2 10 4 10 3 0 8 -4 11
-10z m2323 -18 c2 -8 -3 -9 -19 -4 -13 5 -25 14 -27 20 -2 8 3 9 19 4 13 -5
25 -14 27 -20z m2332 8 c0 -5 -4 -10 -10 -10 -5 0 -10 5 -10 10 0 6 5 10 10
10 6 0 10 -4 10 -10z"/>
<path d="M3638 3193 c7 -3 16 -2 19 1 4 3 -2 6 -13 5 -11 0 -14 -3 -6 -6z"/>
<path d="M3570 3130 c0 -5 9 -10 21 -10 11 0 17 5 14 10 -3 6 -13 10 -21 10
-8 0 -14 -4 -14 -10z"/>
<path d="M5840 1430 c0 -5 7 -7 15 -4 8 4 15 8 15 10 0 2 -7 4 -15 4 -8 0 -15
-4 -15 -10z"/>
<path d="M4220 1450 c0 -5 5 -10 10 -10 6 0 10 5 10 10 0 6 -4 10 -10 10 -5 0
-10 -4 -10 -10z"/>
<path d="M2480 934 c0 -30 19 -28 31 4 7 18 5 22 -11 22 -15 0 -20 -7 -20 -26z"/>
<path d="M2400 771 c0 -23 4 -29 16 -24 17 6 15 44 -3 51 -9 2 -13 -7 -13 -27z"/>
<path d="M2320 680 c0 -22 5 -40 10 -40 6 0 10 18 10 40 0 22 -4 40 -10 40 -5
0 -10 -18 -10 -40z"/>
<path d="M2970 841 c0 -5 7 -14 15 -21 13 -10 15 -9 15 9 0 12 -6 21 -15 21
-8 0 -15 -4 -15 -9z"/>
<path d="M2780 830 c0 -5 5 -10 10 -10 6 0 10 5 10 10 0 6 -4 10 -10 10 -5 0
-10 -4 -10 -10z"/>
<path d="M2825 831 c-3 -5 7 -11 22 -13 44 -5 113 3 113 13 0 12 -127 12 -135
0z"/>
<path d="M2852 764 c-3 -55 23 -84 72 -84 20 0 36 5 36 10 0 6 -16 10 -36 10
-45 0 -62 17 -67 66 l-4 39 -1 -41z"/>
<path d="M2990 705 c0 -8 5 -15 10 -15 6 0 10 7 10 15 0 8 -4 15 -10 15 -5 0
-10 -7 -10 -15z"/>
<path d="M2708 703 c-20 -5 -24 -18 -8 -28 6 -3 17 0 25 9 17 16 9 25 -17 19z"/>
<path d="M2784 689 c-3 -5 6 -9 20 -9 31 0 34 6 6 13 -11 3 -23 1 -26 -4z"/>
<path d="M3042 680 c0 -14 2 -19 5 -12 2 6 2 18 0 25 -3 6 -5 1 -5 -13z"/>
<path d="M2950 543 c-13 -15 -12 -16 4 -10 10 4 22 7 27 7 5 0 9 5 9 10 0 15
-23 11 -40 -7z"/>
<path d="M2990 506 c0 -14 5 -26 10 -26 6 0 10 9 10 19 0 11 -4 23 -10 26 -6
4 -10 -5 -10 -19z"/>
<path d="M3120 326 c0 -9 5 -16 10 -16 6 0 10 4 10 9 0 6 -4 13 -10 16 -5 3
-10 -1 -10 -9z"/>
<path d="M3027 263 c-13 -12 -7 -23 12 -23 26 0 51 10 51 21 0 10 -53 12 -63
2z"/>
<path d="M3200 260 c0 -5 5 -10 10 -10 6 0 10 5 10 10 0 6 -4 10 -10 10 -5 0
-10 -4 -10 -10z"/>
<path d="M4100 5550 c0 -5 9 -10 21 -10 11 0 17 5 14 10 -3 6 -13 10 -21 10
-8 0 -14 -4 -14 -10z"/>
<path d="M4149 5529 c-9 -5 -5 -10 14 -14 37 -10 51 -2 23 11 -14 6 -30 8 -37
3z"/>
<path d="M4160 5453 c0 -7 33 -32 43 -33 16 0 5 16 -18 27 -14 6 -25 9 -25 6z"/>
<path d="M4240 5390 c0 -5 5 -10 11 -10 5 0 7 5 4 10 -3 6 -8 10 -11 10 -2 0
-4 -4 -4 -10z"/>
<path d="M4478 5358 c6 -6 18 -8 28 -6 14 3 12 5 -9 10 -19 3 -25 2 -19 -4z"/>
<path d="M4313 5326 c4 -10 7 -20 7 -22 0 -2 7 -4 15 -4 8 0 15 -4 15 -10 0
-5 6 -10 14 -10 8 0 22 -10 30 -22 9 -12 18 -20 20 -17 7 7 -16 31 -63 68 -30
24 -42 29 -38 17z"/>
<path d="M4545 5320 c3 -5 13 -10 21 -10 8 0 12 5 9 10 -3 6 -13 10 -21 10 -8
0 -12 -4 -9 -10z"/>
<path d="M4590 5291 c0 -9 102 -71 118 -71 7 0 12 3 12 8 0 9 -130 73 -130 63z"/>
<path d="M4460 5201 c0 -12 92 -93 98 -86 5 4 -85 95 -94 95 -2 0 -4 -4 -4 -9z"/>
<path d="M4762 5176 c26 -20 52 -36 59 -36 21 0 -47 57 -77 64 -26 7 -24 4 18
-28z"/>
<path d="M4570 5107 c0 -16 42 -57 58 -57 7 0 12 -4 12 -8 0 -5 26 -26 58 -48
31 -21 60 -43 64 -49 11 -14 3 -31 -13 -27 -7 2 -38 8 -69 14 -30 5 -59 13
-65 18 -5 4 -30 11 -55 15 -25 4 -49 11 -55 15 -5 5 -30 16 -55 26 -25 10 -48
22 -51 27 -4 5 -15 7 -25 5 -18 -5 -18 -5 1 -13 11 -5 26 -15 34 -22 7 -8 26
-17 42 -20 16 -3 29 -9 29 -14 0 -5 11 -9 24 -9 14 0 27 -4 30 -9 3 -5 18 -11
33 -14 16 -3 60 -15 98 -27 56 -17 84 -19 143 -14 39 3 72 10 72 14 0 4 -13
13 -30 20 -16 7 -30 16 -30 21 0 5 -11 9 -25 9 -15 0 -36 11 -49 25 -13 14
-27 25 -31 25 -4 0 -17 9 -29 20 -97 89 -116 102 -116 77z"/>
<path d="M4880 5090 c0 -5 5 -10 10 -10 6 0 10 5 10 10 0 6 -4 10 -10 10 -5 0
-10 -4 -10 -10z"/>
<path d="M4910 5071 c0 -5 14 -19 30 -31 17 -12 30 -17 30 -13 0 5 -13 19 -30
31 -16 13 -30 18 -30 13z"/>
<path d="M4995 5000 c3 -5 8 -10 11 -10 2 0 4 5 4 10 0 6 -5 10 -11 10 -5 0
-7 -4 -4 -10z"/>
<path d="M5030 4970 c0 -15 59 -74 66 -67 4 4 -9 22 -29 41 -20 19 -37 30 -37
26z"/>
<path d="M5110 4895 c0 -5 5 -17 10 -25 5 -8 10 -10 10 -5 0 6 -5 17 -10 25
-5 8 -10 11 -10 5z"/>
<path d="M4480 4870 c0 -5 4 -10 9 -10 6 0 13 5 16 10 3 6 -1 10 -9 10 -9 0
-16 -4 -16 -10z"/>
<path d="M5150 4840 c0 -5 5 -10 10 -10 6 0 10 5 10 10 0 6 -4 10 -10 10 -5 0
-10 -4 -10 -10z"/>
<path d="M5192 4796 c7 -8 17 -12 22 -9 4 3 2 9 -5 14 -22 13 -31 11 -17 -5z"/>
<path d="M5220 4760 c0 -5 5 -10 10 -10 6 0 10 5 10 10 0 6 -4 10 -10 10 -5 0
-10 -4 -10 -10z"/>
<path d="M2970 4651 c0 -13 70 -64 78 -57 3 4 -10 20 -29 36 -35 30 -49 36
-49 21z"/>
<path d="M3067 4574 c-8 -8 1 -24 14 -24 5 0 9 7 9 15 0 15 -12 20 -23 9z"/>
<path d="M3120 4520 c0 -5 5 -10 11 -10 5 0 7 5 4 10 -3 6 -8 10 -11 10 -2 0
-4 -4 -4 -10z"/>
<path d="M3200 4441 c0 -16 50 -65 57 -57 4 3 -8 20 -25 37 -18 17 -32 26 -32
20z"/>
<path d="M3260 4362 c0 -4 18 -27 40 -50 48 -50 53 -40 8 16 -32 39 -48 51
-48 34z"/>
<path d="M1115 4191 c-3 -12 -4 -24 -1 -29 3 -4 1 -24 -3 -43 -4 -18 -4 -45
-1 -59 4 -17 9 3 14 58 7 83 4 113 -9 73z"/>
<path d="M3111 4201 c-14 -9 3 -12 154 -26 75 -6 108 9 38 18 -112 15 -179 17
-192 8z"/>
<path d="M3589 4173 c-6 -35 -4 -37 49 -34 32 1 52 -2 52 -8 0 -12 33 -15 43
-4 12 11 -45 33 -88 33 -25 0 -45 5 -48 13 -4 10 -6 10 -8 0z"/>
<path d="M2070 4101 c0 -25 39 -74 40 -49 0 25 -18 68 -30 68 -5 0 -10 -9 -10
-19z"/>
<path d="M3471 4004 c-1 -26 18 -84 28 -84 5 0 15 18 24 40 8 22 11 40 6 40
-5 0 -12 -7 -15 -15 -9 -22 -19 -18 -31 13 -9 23 -11 24 -12 6z"/>
<path d="M1092 3975 c0 -16 2 -22 5 -12 2 9 2 23 0 30 -3 6 -5 -1 -5 -18z"/>
<path d="M4000 3910 c0 -5 4 -10 9 -10 6 0 13 5 16 10 3 6 -1 10 -9 10 -9 0
-16 -4 -16 -10z"/>
<path d="M3896 3824 c-9 -22 -8 -24 9 -24 8 0 15 9 15 20 0 24 -15 27 -24 4z"/>
<path d="M1087 3763 c-7 -71 -7 -61 4 -263 5 -91 14 -183 20 -205 5 -22 11
-58 13 -80 3 -22 9 -62 15 -90 6 -27 16 -72 21 -100 6 -27 17 -68 25 -90 l14
-40 11 33 c14 38 18 39 48 4 79 -91 92 -108 92 -115 0 -8 48 -73 83 -112 10
-11 26 -33 34 -50 24 -45 175 -187 187 -175 11 11 -50 80 -71 80 -7 0 -13 6
-13 14 0 7 -6 19 -14 25 -19 16 -70 121 -73 149 -3 31 18 37 85 23 90 -19 104
-28 162 -103 30 -38 67 -81 83 -93 15 -13 27 -28 27 -34 0 -6 5 -11 12 -11 6
0 22 -10 35 -22 l24 -22 67 36 c66 35 88 58 58 58 -9 0 -16 -4 -16 -10 0 -18
-16 -11 -60 28 -24 20 -46 36 -50 36 -13 -3 -30 9 -35 27 -4 10 -12 19 -18 19
-12 0 -38 46 -30 53 7 8 83 -69 83 -84 0 -12 2 -12 9 -1 7 12 18 11 64 0 31
-8 54 -11 51 -6 -3 4 6 13 20 20 17 7 26 19 26 35 0 13 6 23 14 23 11 0 16 15
18 51 l3 52 23 -43 c24 -46 29 -89 11 -107 -16 -16 -4 -44 16 -37 8 3 15 18
15 33 0 48 -26 165 -48 215 -12 27 -22 55 -22 62 0 8 -4 14 -8 14 -11 0 -46
105 -39 117 3 4 0 15 -6 23 -15 20 -110 80 -125 80 -7 0 -12 5 -12 10 0 6 -7
10 -15 10 -8 0 -21 13 -29 29 -27 51 -58 50 -164 -2 -57 -27 -67 -29 -95 -19
-17 6 -33 9 -36 5 -3 -3 0 -8 7 -10 6 -3 12 -9 12 -14 0 -6 14 -22 30 -36 35
-29 38 -43 10 -43 -11 0 -20 4 -20 9 0 5 -11 12 -24 15 -14 3 -54 26 -90 50
-40 27 -68 40 -72 34 -8 -13 31 -45 64 -54 27 -8 27 -9 1 -45 -17 -24 -25 -28
-47 -22 -30 7 -67 45 -81 83 -18 48 -21 55 -50 95 -21 29 -26 43 -19 52 11 14
-13 61 -39 76 -7 4 -13 15 -13 22 0 8 -6 15 -13 15 -6 0 -18 15 -25 33 -13 33
-43 100 -69 153 -16 33 -30 87 -39 149 -9 56 -11 54 -17 -12z m587 -694 c59
-27 65 -189 7 -189 -37 0 -90 30 -125 72 -46 53 -45 82 2 86 18 2 42 12 53 23
22 22 29 23 63 8z m180 -61 c15 -24 -3 -52 -36 -56 -31 -4 -66 40 -45 56 32
25 65 25 81 0z"/>
<path d="M2815 3780 c-4 -6 -10 -8 -15 -5 -5 3 -11 1 -15 -5 -3 -5 -14 -10
-23 -10 -10 0 -25 -12 -34 -27 -9 -16 -26 -39 -37 -52 -30 -34 -26 -49 4 -17
14 15 25 31 25 37 0 5 5 9 10 9 6 0 20 10 32 22 12 12 29 23 36 24 25 4 42 13
42 24 0 13 -17 13 -25 0z"/>
<path d="M3937 3724 c-12 -12 4 -24 34 -24 16 0 29 -4 29 -10 0 -5 7 -10 15
-10 27 0 16 21 -20 36 -38 16 -49 17 -58 8z"/>
<path d="M2290 3691 c0 -5 7 -12 16 -15 14 -5 15 -4 4 9 -14 17 -20 19 -20 6z"/>
<path d="M2034 3665 c20 -14 43 -25 51 -25 8 0 15 -5 15 -11 0 -9 58 -39 76
-39 3 0 -17 16 -45 35 -28 19 -55 35 -61 35 -6 0 -18 7 -26 15 -9 8 -22 15
-31 15 -9 0 1 -11 21 -25z"/>
<path d="M2249 3555 c18 -8 36 -15 40 -15 13 1 -45 29 -59 29 -8 0 0 -6 19
-14z"/>
<path d="M3960 3530 c0 -5 9 -10 21 -10 11 0 17 5 14 10 -3 6 -13 10 -21 10
-8 0 -14 -4 -14 -10z"/>
<path d="M2400 3510 c0 -5 18 -10 40 -10 22 0 40 5 40 10 0 6 -18 10 -40 10
-22 0 -40 -4 -40 -10z"/>
<path d="M3920 3510 c0 -5 7 -7 15 -4 8 4 15 8 15 10 0 2 -7 4 -15 4 -8 0 -15
-4 -15 -10z"/>
<path d="M4080 3424 c0 -8 5 -12 10 -9 6 3 10 10 10 16 0 5 -4 9 -10 9 -5 0
-10 -7 -10 -16z"/>
<path d="M1480 3376 c0 -8 5 -18 10 -21 6 -3 10 1 10 9 0 8 -4 18 -10 21 -5 3
-10 -1 -10 -9z"/>
<path d="M4065 3361 c-3 -5 -1 -12 5 -16 5 -3 10 1 10 9 0 18 -6 21 -15 7z"/>
<path d="M1511 3324 c0 -11 3 -14 6 -6 3 7 2 16 -1 19 -3 4 -6 -2 -5 -13z"/>
<path d="M1310 3323 c0 -12 53 -54 59 -47 3 3 -2 11 -12 18 -9 7 -17 18 -17
25 0 6 -7 11 -15 11 -8 0 -15 -3 -15 -7z"/>
<path d="M807 3269 c7 -27 23 -34 23 -11 0 11 -6 22 -14 25 -10 4 -12 0 -9
-14z"/>
<path d="M1547 3255 c18 -24 33 -32 33 -17 -1 13 -27 42 -39 42 -8 0 -5 -9 6
-25z"/>
<path d="M4117 3265 c6 -17 25 -15 31 3 2 7 -5 12 -17 12 -14 0 -19 -5 -14
-15z"/>
<path d="M1380 3250 c0 -5 9 -14 20 -20 16 -8 20 -8 20 4 0 7 -7 17 -16 20
-21 8 -24 8 -24 -4z"/>
<path d="M4152 3220 c0 -14 2 -19 5 -12 2 6 2 18 0 25 -3 6 -5 1 -5 -13z"/>
<path d="M870 3148 c0 -15 6 -33 13 -40 7 -7 16 -22 20 -32 4 -10 10 -16 13
-13 4 3 -5 30 -20 58 -21 44 -26 48 -26 27z"/>
<path d="M791 3054 c0 -11 3 -14 6 -6 3 7 2 16 -1 19 -3 4 -6 -2 -5 -13z"/>
<path d="M925 3030 c3 -5 8 -10 11 -10 2 0 4 5 4 10 0 6 -5 10 -11 10 -5 0 -7
-4 -4 -10z"/>
<path d="M951 2994 c0 -11 3 -14 6 -6 3 7 2 16 -1 19 -3 4 -6 -2 -5 -13z"/>
<path d="M4185 2999 c-10 -15 3 -25 16 -12 7 7 7 13 1 17 -6 3 -14 1 -17 -5z"/>
<path d="M989 2922 c11 -21 27 -44 35 -51 9 -8 16 -20 16 -27 0 -8 5 -14 10
-14 6 0 10 -6 10 -13 0 -7 13 -28 30 -47 22 -26 29 -30 30 -17 0 9 -4 17 -10
17 -5 0 -10 7 -10 15 0 8 -4 15 -8 15 -4 0 -19 18 -32 40 -14 22 -28 40 -32
40 -5 0 -8 7 -8 15 0 19 -29 65 -41 65 -5 0 -1 -17 10 -38z"/>
<path d="M4240 2890 c0 -5 5 -10 11 -10 5 0 7 5 4 10 -3 6 -8 10 -11 10 -2 0
-4 -4 -4 -10z"/>
<path d="M880 2865 c0 -8 5 -15 10 -15 6 0 10 7 10 15 0 8 -4 15 -10 15 -5 0
-10 -7 -10 -15z"/>
<path d="M1206 2865 c4 -8 10 -15 15 -15 5 0 9 7 9 15 0 8 -7 15 -15 15 -9 0
-12 -6 -9 -15z"/>
<path d="M906 2827 c3 -10 9 -15 12 -12 3 3 0 11 -7 18 -10 9 -11 8 -5 -6z"/>
<path d="M920 2790 c0 -5 5 -10 10 -10 6 0 10 5 10 10 0 6 -4 10 -10 10 -5 0
-10 -4 -10 -10z"/>
<path d="M940 2763 c0 -14 50 -66 57 -60 3 4 -4 15 -15 26 -12 10 -22 23 -22
30 0 6 -4 11 -10 11 -5 0 -10 -3 -10 -7z"/>
<path d="M1150 2710 c0 -9 16 -31 36 -50 19 -19 43 -43 52 -52 19 -20 32 -23
32 -7 0 12 -25 39 -37 39 -4 0 -25 19 -45 42 -23 26 -38 37 -38 28z"/>
<path d="M1271 2704 c0 -11 3 -14 6 -6 3 7 2 16 -1 19 -3 4 -6 -2 -5 -13z"/>
<path d="M1000 2680 c0 -5 5 -10 11 -10 5 0 7 5 4 10 -3 6 -8 10 -11 10 -2 0
-4 -4 -4 -10z"/>
<path d="M1296 2661 c-4 -7 -5 -15 -2 -18 9 -9 19 4 14 18 -4 11 -6 11 -12 0z"/>
<path d="M1026 2651 c-4 -6 -2 -11 3 -11 6 0 11 -6 11 -13 0 -16 38 -53 46
-45 3 3 -3 14 -14 24 -10 11 -24 27 -29 38 -7 12 -13 15 -17 7z"/>
<path d="M2086 2613 c-21 -11 -25 -17 -16 -23 14 -9 60 16 60 31 0 12 -9 10
-44 -8z"/>
<path d="M1280 2570 c0 -5 7 -10 16 -10 8 0 12 5 9 10 -3 6 -10 10 -16 10 -5
0 -9 -4 -9 -10z"/>
<path d="M1351 2573 c-1 -7 -9 -13 -18 -13 -15 -1 -14 -4 6 -21 29 -24 33 -21
22 17 -5 16 -10 23 -10 17z"/>
<path d="M1162 2505 c15 -14 32 -25 38 -25 5 0 10 -4 10 -10 0 -5 7 -10 15
-10 8 0 15 5 15 10 0 6 -5 10 -12 10 -6 0 -26 11 -44 25 -18 14 -36 25 -41 25
-4 0 4 -11 19 -25z"/>
<path d="M1240 2440 c0 -5 7 -10 16 -10 8 0 12 5 9 10 -3 6 -10 10 -16 10 -5
0 -9 -4 -9 -10z"/>
<path d="M1295 2401 c11 -5 28 -18 39 -30 10 -11 23 -18 27 -15 15 9 10 24 -7
24 -8 0 -22 7 -30 15 -9 8 -23 15 -32 14 -14 0 -13 -2 3 -8z"/>
<path d="M1465 2310 c3 -5 13 -10 21 -10 8 0 14 -8 14 -19 0 -10 7 -24 15 -31
8 -7 15 -16 15 -21 0 -4 11 -20 25 -35 14 -15 25 -33 25 -40 0 -8 5 -14 10
-14 6 0 10 -6 10 -12 0 -7 11 -26 25 -42 14 -16 25 -24 25 -18 0 7 -9 21 -19
31 -10 10 -22 33 -26 50 -4 17 -11 31 -16 31 -5 0 -9 6 -9 13 0 7 -9 22 -19
34 -12 13 -16 25 -11 34 11 17 -6 39 -31 39 -10 0 -21 5 -24 10 -3 6 -13 10
-21 10 -8 0 -12 -4 -9 -10z"/>
<path d="M1900 2295 c0 -8 71 -38 76 -32 3 3 -8 13 -25 21 -29 16 -51 20 -51
11z"/>
<path d="M4181 2248 c-12 -29 -27 -61 -32 -71 -9 -16 -5 -38 4 -26 8 10 67
135 67 142 0 23 -19 0 -39 -45z"/>
<path d="M2008 2244 c6 -3 12 -14 12 -25 0 -15 7 -19 39 -19 22 0 42 4 46 9 6
11 -12 24 -35 27 -8 1 -28 4 -45 8 -16 3 -24 3 -17 0z"/>
<path d="M1968 2193 c6 -2 18 -2 25 0 6 3 1 5 -13 5 -14 0 -19 -2 -12 -5z"/>
<path d="M4120 2129 c0 -5 5 -7 10 -4 6 3 10 8 10 11 0 2 -4 4 -10 4 -5 0 -10
-5 -10 -11z"/>
<path d="M4960 2100 c0 -11 7 -20 15 -20 8 0 15 6 15 14 0 8 -7 16 -15 20 -10
4 -15 -1 -15 -14z"/>
<path d="M4081 2072 c-23 -33 -26 -42 -12 -42 5 0 13 10 17 23 4 12 12 25 18
29 6 4 8 10 4 13 -3 3 -15 -7 -27 -23z"/>
<path d="M3410 2080 c0 -5 7 -7 15 -4 8 4 15 8 15 10 0 2 -7 4 -15 4 -8 0 -15
-4 -15 -10z"/>
<path d="M3350 2010 c-13 -8 -12 -10 3 -10 9 0 17 5 17 10 0 12 -1 12 -20 0z"/>
<path d="M4013 1983 c-7 -2 -13 -11 -13 -19 0 -8 -4 -14 -10 -14 -11 0 -34
-40 -26 -47 3 -3 21 12 41 32 44 47 47 64 8 48z"/>
<path d="M3260 1950 c0 -5 5 -10 10 -10 6 0 10 5 10 10 0 6 -4 10 -10 10 -5 0
-10 -4 -10 -10z"/>
<path d="M3930 1871 c0 -5 5 -13 10 -16 6 -3 10 -2 10 4 0 5 -4 13 -10 16 -5
3 -10 2 -10 -4z"/>
<path d="M3900 1843 c-8 -3 -19 -12 -23 -19 -4 -8 -15 -14 -22 -14 -8 0 -15
-6 -15 -13 0 -7 -13 -27 -30 -45 -30 -34 -38 -52 -21 -52 5 0 12 9 16 19 4 12
12 18 21 14 9 -3 14 2 14 15 0 12 6 25 14 29 12 7 72 74 64 72 -1 0 -10 -3
-18 -6z"/>
<path d="M5050 1800 c0 -29 4 -40 15 -40 11 0 15 11 15 40 0 29 -4 40 -15 40
-11 0 -15 -11 -15 -40z"/>
<path d="M3700 1640 c0 -5 5 -10 10 -10 6 0 10 5 10 10 0 6 -4 10 -10 10 -5 0
-10 -4 -10 -10z"/>
<path d="M3675 1610 c-3 -5 -1 -10 4 -10 6 0 11 5 11 10 0 6 -2 10 -4 10 -3 0
-8 -4 -11 -10z"/>
<path d="M5040 1560 c0 -22 5 -40 10 -40 6 0 10 18 10 40 0 22 -4 40 -10 40
-5 0 -10 -18 -10 -40z"/>
<path d="M3610 1560 c-8 -5 -12 -11 -9 -14 2 -3 11 -1 19 4 8 5 12 11 9 14 -2
3 -11 1 -19 -4z"/>
<path d="M3520 1477 c0 -7 -17 -20 -37 -30 l-38 -18 32 5 c18 3 42 15 53 26
24 24 25 30 5 30 -8 0 -15 -6 -15 -13z"/>
<path d="M4625 1387 c-4 -10 -5 -21 -1 -24 10 -10 18 4 13 24 -4 17 -4 17 -12
0z"/>
<path d="M4095 1250 c3 -5 13 -10 21 -10 8 0 14 5 14 10 0 6 -9 10 -21 10 -11
0 -17 -4 -14 -10z"/>
<path d="M4260 1250 c0 -5 9 -10 20 -10 11 0 20 5 20 10 0 6 -9 10 -20 10 -11
0 -20 -4 -20 -10z"/>
<path d="M4120 1130 c0 -16 5 -30 10 -30 6 0 10 14 10 30 0 17 -4 30 -10 30
-5 0 -10 -13 -10 -30z"/>
<path d="M3987 1121 c-17 -6 -17 -9 -4 -19 12 -10 16 -9 20 8 3 11 4 20 4 19
-1 0 -10 -4 -20 -8z"/>
<path d="M3920 1110 c0 -5 7 -7 15 -4 8 4 15 8 15 10 0 2 -7 4 -15 4 -8 0 -15
-4 -15 -10z"/>
<path d="M5980 1080 c0 -36 -3 -40 -24 -40 -23 0 -24 -4 -31 -80 -7 -76 -8
-80 -31 -80 -15 0 -24 -6 -24 -15 0 -9 -7 -18 -15 -21 -8 -4 -15 -15 -15 -25
0 -15 7 -19 38 -19 32 0 40 5 61 38 13 20 32 49 43 64 14 22 18 46 18 123 0
57 -4 95 -10 95 -5 0 -10 -18 -10 -40z"/>
<path d="M3987 1046 c-4 -10 -5 -21 -2 -24 9 -9 17 6 13 25 -3 17 -4 17 -11
-1z"/>
<path d="M4131 1044 c0 -11 3 -14 6 -6 3 7 2 16 -1 19 -3 4 -6 -2 -5 -13z"/>
<path d="M3732 975 c-11 -13 -9 -15 8 -15 11 0 20 7 20 15 0 19 -11 19 -28 0z"/>
<path d="M3840 975 c0 -9 9 -15 21 -15 18 0 19 2 9 15 -7 8 -16 15 -21 15 -5
0 -9 -7 -9 -15z"/>
<path d="M3780 970 c-11 -7 -6 -10 20 -10 26 0 31 3 20 10 -8 5 -17 10 -20 10
-3 0 -12 -5 -20 -10z"/>
<path d="M4058 963 c6 -2 18 -2 25 0 6 3 1 5 -13 5 -14 0 -19 -2 -12 -5z"/>
<path d="M4237 950 c3 -10 16 -16 38 -16 19 0 37 7 42 16 9 13 3 15 -37 15
-37 0 -46 -3 -43 -15z"/>
<path d="M5360 940 c0 -22 25 -18 34 6 3 9 -1 14 -14 14 -13 0 -20 -7 -20 -20z"/>
<path d="M6 841 c-8 -12 21 -34 34 -26 8 5 8 11 -1 21 -13 16 -25 18 -33 5z"/>
<path d="M3575 830 c-4 -6 5 -10 20 -10 15 0 24 4 20 10 -3 6 -12 10 -20 10
-8 0 -17 -4 -20 -10z"/>
<path d="M3666 831 c-4 -5 0 -11 6 -14 19 -6 49 4 42 14 -7 12 -41 12 -48 0z"/>
<path d="M3760 830 c0 -5 11 -10 25 -10 14 0 25 5 25 10 0 6 -11 10 -25 10
-14 0 -25 -4 -25 -10z"/>
<path d="M3840 830 c0 -5 7 -10 15 -10 8 0 15 5 15 10 0 6 -7 10 -15 10 -8 0
-15 -4 -15 -10z"/>
<path d="M10 760 c0 -22 5 -40 10 -40 6 0 10 18 10 40 0 22 -4 40 -10 40 -5 0
-10 -18 -10 -40z"/>
<path d="M3701 753 c2 -34 -1 -48 -11 -51 -42 -11 -45 -14 -25 -22 11 -4 28
-4 37 1 23 12 34 11 51 -5 8 -8 19 -11 27 -6 17 10 2 33 -17 26 -26 -10 -43
14 -43 60 0 25 -5 44 -11 44 -6 0 -9 -18 -8 -47z"/>
<path d="M3840 778 c0 -19 2 -20 10 -8 13 19 13 30 0 30 -5 0 -10 -10 -10 -22z"/>
<path d="M5200 780 c0 -22 25 -18 34 6 3 9 -1 14 -14 14 -13 0 -20 -7 -20 -20z"/>
<path d="M3420 701 c-5 -11 -10 -22 -10 -25 0 -9 23 -7 39 3 12 8 12 12 -2 25
-15 15 -17 15 -27 -3z"/>
<path d="M3554 704 c3 -9 6 -51 6 -95 0 -50 4 -79 11 -79 7 0 10 22 8 63 -2
34 0 68 4 75 12 18 -2 52 -20 52 -10 0 -13 -6 -9 -16z"/>
<path d="M5591 704 c0 -11 3 -14 6 -6 3 7 2 16 -1 19 -3 4 -6 -2 -5 -13z"/>
<path d="M0 689 c0 -16 4 -19 23 -13 31 9 34 14 17 24 -24 16 -40 11 -40 -11z"/>
<path d="M3600 690 c0 -5 7 -10 16 -10 8 0 12 5 9 10 -3 6 -10 10 -16 10 -5 0
-9 -4 -9 -10z"/>
<path d="M3420 601 c0 -22 -5 -41 -11 -43 -6 -2 -8 -14 -3 -31 10 -42 23 -20
30 51 5 44 3 62 -5 62 -6 0 -11 -16 -11 -39z"/>
<path d="M3702 600 c0 -14 2 -19 5 -12 2 6 2 18 0 25 -3 6 -5 1 -5 -13z"/>
<path d="M5040 601 c0 -14 5 -19 15 -14 17 6 15 25 -3 31 -7 2 -12 -5 -12 -17z"/>
<path d="M3280 576 c0 -9 5 -16 10 -16 6 0 10 4 10 9 0 6 -4 13 -10 16 -5 3
-10 -1 -10 -9z"/>
<path d="M3870 575 c-10 -13 -9 -15 9 -15 11 0 21 4 21 9 0 18 -18 21 -30 6z"/>
<path d="M3350 550 c-8 -5 -11 -12 -7 -16 4 -4 13 -2 19 4 15 15 7 24 -12 12z"/>
<path d="M2560 468 l1 -33 13 25 c14 25 13 40 -5 40 -5 0 -9 -15 -9 -32z"/>
<path d="M5345 490 c-3 -5 -1 -10 4 -10 6 0 11 5 11 10 0 6 -2 10 -4 10 -3 0
-8 -4 -11 -10z"/>
<path d="M3415 470 c4 -6 11 -8 16 -5 14 9 11 15 -7 15 -8 0 -12 -5 -9 -10z"/>
<path d="M4880 465 c0 -13 4 -14 20 -5 11 6 20 13 20 15 0 3 -9 5 -20 5 -11 0
-20 -7 -20 -15z"/>
<path d="M2560 405 c0 -26 4 -28 32 -17 14 6 13 9 -8 25 -24 18 -24 18 -24 -8z"/>
<path d="M2707 413 c-2 -5 -1 -19 3 -33 l6 -25 6 28 c5 26 -5 47 -15 30z"/>
<path d="M3360 403 c0 -17 4 -20 22 -15 16 4 18 7 8 10 -8 3 -18 10 -22 16 -5
6 -8 2 -8 -11z"/>
<path d="M3410 414 c1 -5 7 -20 15 -34 13 -24 14 -24 15 -4 0 12 -7 27 -15 34
-8 7 -15 9 -15 4z"/>
<path d="M3557 413 c-13 -12 -7 -23 13 -23 13 0 18 5 14 15 -7 16 -17 19 -27
8z"/>
<path d="M4800 385 c0 -13 4 -14 20 -5 11 6 20 13 20 15 0 3 -9 5 -20 5 -11 0
-20 -7 -20 -15z"/>
<path d="M2560 291 c0 -21 6 -32 21 -36 33 -11 48 12 16 24 -18 7 -25 15 -21
26 3 8 1 15 -5 15 -6 0 -11 -13 -11 -29z"/>
<path d="M2705 310 c3 -5 8 -10 11 -10 2 0 4 5 4 10 0 6 -5 10 -11 10 -5 0 -7
-4 -4 -10z"/>
<path d="M2850 316 c0 -2 7 -6 15 -10 8 -3 15 -1 15 4 0 6 -7 10 -15 10 -8 0
-15 -2 -15 -4z"/>
<path d="M4720 305 c0 -13 4 -14 20 -5 11 6 20 13 20 15 0 3 -9 5 -20 5 -11 0
-20 -7 -20 -15z"/>
<path d="M2840 270 c-9 -6 -10 -10 -3 -10 6 0 18 -3 27 -6 11 -4 16 -1 16 10
0 18 -17 21 -40 6z"/>
<path d="M2530 259 c0 -5 5 -7 10 -4 6 3 10 8 10 11 0 2 -4 4 -10 4 -5 0 -10
-5 -10 -11z"/>
<path d="M2640 260 c0 -5 5 -10 10 -10 6 0 10 5 10 10 0 6 -4 10 -10 10 -5 0
-10 -4 -10 -10z"/>
<path d="M2563 200 c0 -25 2 -35 4 -22 2 12 2 32 0 45 -2 12 -4 2 -4 -23z"/>
<path d="M2853 200 c0 -25 2 -35 4 -22 2 12 2 32 0 45 -2 12 -4 2 -4 -23z"/>
<path d="M5760 145 c0 -8 15 -17 37 -21 l38 -7 -35 -16 c-19 -9 -37 -19 -40
-23 -3 -4 -30 -9 -60 -11 -30 -3 -68 -10 -84 -16 -23 -9 -32 -9 -45 2 -23 20
-131 31 -131 14 0 -7 12 -18 28 -24 l27 -10 -27 -11 c-16 -6 -28 -14 -28 -17
0 -3 72 -5 161 -4 130 2 159 4 155 15 -3 8 1 14 10 14 11 0 14 -6 10 -16 -5
-13 1 -15 32 -13 20 1 45 6 54 11 10 5 19 4 23 -2 3 -5 31 -10 61 -10 l54 0 0
39 c0 22 -5 42 -12 44 -10 4 -10 6 0 6 7 1 12 15 12 36 l0 35 -51 0 c-27 0
-48 -4 -45 -9 3 -5 15 -7 25 -4 10 3 22 0 25 -6 5 -7 -4 -11 -23 -11 -16 0
-33 -4 -36 -10 -3 -5 -16 -9 -28 -9 -17 1 -18 2 -4 6 24 6 21 18 -8 31 -37 17
-95 15 -95 -3z m215 -95 c-8 -13 -35 -13 -35 0 0 6 9 10 21 10 11 0 17 -4 14
-10z m-435 -14 c0 -3 -4 -8 -10 -11 -5 -3 -10 -1 -10 4 0 6 5 11 10 11 6 0 10
-2 10 -4z"/>
<path d="M2800 120 c0 -5 5 -10 10 -10 6 0 10 5 10 10 0 6 -4 10 -10 10 -5 0
-10 -4 -10 -10z"/>
</g>
</svg>
